<svg xmlns="http://www.w3.org/2000/svg" viewBox="0 0 59.42 41.19"><title>account-status-crown</title><path d="M7.12,39.26c3.59,3.17,9.65,6.9,18.67,9.64,8.78,2.67,15.45,2.91,20.17,2.33l.62-3.15c-4.7.52-11.26.23-19.82-2.37C17.74,43,12,39.33,8.41,36.17Z" transform="translate(-2.29 -10.3)" style="fill:#364342;opacity:0.1"/><path d="M55.23,47.16s-9,6.56-29.06.47S2.29,31.07,2.29,31.07L8.4,10.3,19,21.52l18.14-10,9.48,18.43L61.71,26.5Z" transform="translate(-2.29 -10.3)" style="fill:#eedb45"/><circle cx="9.43" cy="14.99" r="2.67" style="fill:#3388b8;stroke:#6faccd;stroke-miterlimit:10"/><circle cx="8.89" cy="14.48" r="1.34" style="fill:#fff"/><circle cx="48.22" cy="27.13" r="2.67" style="fill:#3388b8;stroke:#6faccd;stroke-miterlimit:10;stroke-width:2px"/><circle cx="47.68" cy="26.62" r="1.34" style="fill:#fff"/><circle cx="28.49" cy="22.18" r="4.87" style="fill:#d24a49;stroke:#d77;stroke-miterlimit:10;stroke-width:2px"/><circle cx="27.37" cy="21.13" r="2.39" style="fill:#fff"/><path d="M56.2,44a18.43,18.43,0,0,1-7,2.51c-4.76.88-12,1-22-2s-16-7.19-19.45-10.57a18.62,18.62,0,0,1-4.43-6l-1,3.2a18.42,18.42,0,0,0,4.43,6c3.47,3.38,9.44,7.52,19.45,10.56s17.28,2.93,22,2a18.52,18.52,0,0,0,7-2.52Z" transform="translate(-2.29 -10.3)" style="fill:#e0cb4b"/></svg>