<svg id="Layer_1" data-name="Layer 1" xmlns="http://www.w3.org/2000/svg" viewBox="0 0 64 64"><defs><style>.cls-1{fill:none;stroke:#000;stroke-miterlimit:10;}</style></defs><title>icon-extension-question</title><path class="cls-1" d="M123.67,26.07" transform="translate(-0.05 -0.19)"/><path d="M195.5,6.43" transform="translate(-0.05 -0.19)"/><path d="M64.05,32.19a32,32,0,1,1-32-32A32,32,0,0,1,64.05,32.19ZM46.4,16.82H17.71a2.06,2.06,0,0,0-2,2V39.36a2.06,2.06,0,0,0,2,2H36.46l6,6a.47.47,0,0,0,.36.15.31.31,0,0,0,.2-.05.49.49,0,0,0,.31-.46V41.41H46.4a2.06,2.06,0,0,0,2-2V18.87A2.06,2.06,0,0,0,46.4,16.82ZM33.5,35.12a1.5,1.5,0,1,1-3,0v-4.5H26a1.5,1.5,0,0,1,0-3h4.5v-4.5a1.5,1.5,0,0,1,3,0v4.5H38a1.5,1.5,0,0,1,0,3H33.5Z" transform="translate(-0.05 -0.19)"/></svg>