<?xml version="1.0" encoding="UTF-8"?>
<svg xmlns="http://www.w3.org/2000/svg"
  xmlns:xlink="http://www.w3.org/1999/xlink" id="Layer_1" x="0px" y="0px" viewBox="0 0 64 64" xml:space="preserve">
  <g>
    <path fill="none" d="M24,8C15.2,8,8,15.2,8,24c0,8.8,7.2,16,16,16s16-7.2,16-16C40,15.2,32.8,8,24,8z M35,28H13v-8h22V28z"></path>
    <path d="M62.2,53.8L44.7,36.2C46.8,32.6,48,28.5,48,24C48,10.7,37.3,0,24,0S0,10.7,0,24s10.7,24,24,24c4.5,0,8.6-1.2,12.2-3.3   l17.6,17.6c1.2,1.2,2.7,1.8,4.2,1.8s3.1-0.6,4.2-1.8C64.6,59.9,64.6,56.1,62.2,53.8z M24,40c-8.8,0-16-7.2-16-16   c0-8.8,7.2-16,16-16s16,7.2,16,16C40,32.8,32.8,40,24,40z"></path>
    <rect x="13" y="20" width="22" height="8"></rect>
  </g>
</svg>
