<?xml version="1.0" encoding="utf-8"?>
<!-- Generator: Adobe Illustrator 17.1.0, SVG Export Plug-In . SVG Version: 6.00 Build 0)  -->
<!DOCTYPE svg PUBLIC "-//W3C//DTD SVG 1.1//EN" "http://www.w3.org/Graphics/SVG/1.1/DTD/svg11.dtd">
<svg version="1.1" id="Layer_1" xmlns="http://www.w3.org/2000/svg" xmlns:xlink="http://www.w3.org/1999/xlink" x="0px" y="0px"
	 viewBox="0 0 64 64" enable-background="new 0 0 64 64" xml:space="preserve">
<path d="M18,14c0,2.2-1.8,4-4,4H4c-2.2,0-4-1.8-4-4V4c0-2.2,1.8-4,4-4h10c2.2,0,4,1.8,4,4V14z"/>
<path d="M41,14c0,2.2-1.8,4-4,4H27c-2.2,0-4-1.8-4-4V4c0-2.2,1.8-4,4-4h10c2.2,0,4,1.8,4,4V14z"/>
<path d="M64,14c0,2.2-1.8,4-4,4H50c-2.2,0-4-1.8-4-4V4c0-2.2,1.8-4,4-4h10c2.2,0,4,1.8,4,4V14z"/>
<path d="M18,60c0,2.2-1.8,4-4,4H4c-2.2,0-4-1.8-4-4V50c0-2.2,1.8-4,4-4h10c2.2,0,4,1.8,4,4V60z"/>
<path d="M41,60c0,2.2-1.8,4-4,4H27c-2.2,0-4-1.8-4-4V50c0-2.2,1.8-4,4-4h10c2.2,0,4,1.8,4,4V60z"/>
<path d="M64,60c0,2.2-1.8,4-4,4H50c-2.2,0-4-1.8-4-4V50c0-2.2,1.8-4,4-4h10c2.2,0,4,1.8,4,4V60z"/>
<path d="M18,37c0,2.2-1.8,4-4,4H4c-2.2,0-4-1.8-4-4V27c0-2.2,1.8-4,4-4h10c2.2,0,4,1.8,4,4V37z"/>
<path d="M41,37c0,2.2-1.8,4-4,4H27c-2.2,0-4-1.8-4-4V27c0-2.2,1.8-4,4-4h10c2.2,0,4,1.8,4,4V37z"/>
<path d="M64,37c0,2.2-1.8,4-4,4H50c-2.2,0-4-1.8-4-4V27c0-2.2,1.8-4,4-4h10c2.2,0,4,1.8,4,4V37z"/>
</svg>
