<?xml version="1.0" encoding="utf-8"?>
<!-- Generator: Adobe Illustrator 22.0.1, SVG Export Plug-In . SVG Version: 6.00 Build 0)  -->
<svg version="1.1" id="Layer_1" xmlns="http://www.w3.org/2000/svg" xmlns:xlink="http://www.w3.org/1999/xlink" x="0px" y="0px"
	 viewBox="0 0 60.4 60.5" style="enable-background:new 0 0 60.4 60.5;" xml:space="preserve">
<path d="M56.6,6.8l-2.9-2.9C50.2,0.4,44.5,0.3,41,3.8L6.2,38.6c-1.2,1.2-1.9,2.6-2.3,4.2l-2.7,13c-0.2,0.9,0.1,1.9,0.8,2.6
	c0.5,0.5,1.2,0.8,2,0.9c0,0,0,0,0,0c0.2,0,0.4,0,0.6-0.1l13-2.7c1.6-0.3,3.1-1.1,4.2-2.3l34.7-34.7C60.1,16,60.1,10.4,56.6,6.8z
	 M50.3,19.2L18.9,50.6l-2.9-2.9l31.3-31.4L50.3,19.2z M9.9,41.6l31.3-31.4l2.9,2.9L12.8,44.4L9.9,41.6z M14.2,52.4l-5.3,1.1l-2-2
	L8,46.2L14.2,52.4z M53.5,15.9l-9-9c1.7-1.4,4.2-1.3,5.8,0.3l2.9,2.9C54.8,11.7,54.9,14.2,53.5,15.9z"/>
</svg>
