<svg id="Layer_1" data-name="Layer 1" xmlns="http://www.w3.org/2000/svg" viewBox="0 0 64 64"><defs><style>.cls-1{fill:none;stroke:#000;stroke-miterlimit:10;}</style></defs><title>icon-lock-open</title><path class="cls-1" d="M123.67,26.07" transform="translate(0 0.05)"/><path d="M64,31.95a32,32,0,1,1-32-32A32,32,0,0,1,64,31.95ZM41.53,21.25c.47-4.47-4.68-8.31-9.55-8.31a9.63,9.63,0,0,0-9.6,9.64v2.9H21.11a1.27,1.27,0,0,0-1.27,1.27V43.67a1.27,1.27,0,0,0,1.27,1.27H42.89a1.27,1.27,0,0,0,1.27-1.27V26.75a1.27,1.27,0,0,0-1.27-1.27h-17l0-2.9c0-4.1,2.52-6.45,6.75-6.08,3.29.29,4.84,1.89,5.37,5.08C38.1,22.26,41.45,22,41.53,21.25Z" transform="translate(0 0.05)"/><path d="M195.5,6.43" transform="translate(0 0.05)"/></svg>