<?xml version="1.0" encoding="utf-8"?>
<!-- Generator: Adobe Illustrator 18.0.0, SVG Export Plug-In . SVG Version: 6.00 Build 0)  -->
<!DOCTYPE svg PUBLIC "-//W3C//DTD SVG 1.1//EN" "http://www.w3.org/Graphics/SVG/1.1/DTD/svg11.dtd">
<svg version="1.1" id="Layer_1" xmlns="http://www.w3.org/2000/svg" xmlns:xlink="http://www.w3.org/1999/xlink" x="0px" y="0px"
	 viewBox="0 0 64 64" enable-background="new 0 0 64 64" xml:space="preserve">
<path d="M60,4H42.5c0-2.2-1.8-4-4-4h-13c-2.2,0-4,1.8-4,4H4C1.8,4,0,5.8,0,8c0,2.2,1.8,4,4,4h1v35c0,2.8,2.2,5,5,5h11.2l-5.8,5
	c-1.7,1.4-1.9,4-0.4,5.6c0.8,0.9,1.9,1.4,3,1.4c0.9,0,1.8-0.3,2.6-1L32,53.3L43.4,63c0.8,0.6,1.7,1,2.6,1c1.1,0,2.2-0.5,3-1.4
	c1.4-1.7,1.2-4.2-0.4-5.6l-5.8-5H54c2.8,0,5-2.2,5-5V12h1c2.2,0,4-1.8,4-4C64,5.8,62.2,4,60,4z M51,44H13V12h38V44z"/>
</svg>
