<?xml version="1.0" encoding="utf-8"?>
<!DOCTYPE svg PUBLIC "-//W3C//DTD SVG 1.1//EN" "http://www.w3.org/Graphics/SVG/1.1/DTD/svg11.dtd">
<svg version="1.1" id="Layer_1" xmlns="http://www.w3.org/2000/svg" xmlns:xlink="http://www.w3.org/1999/xlink" x="0px" y="0px"
	 viewBox="0 0 64 64" enable-background="new 0 0 64 64" xml:space="preserve">
<path d="M32,0C14.3,0,0,14.3,0,32c0,17.7,14.3,32,32,32s32-14.3,32-32C64,14.3,49.7,0,32,0z M47.3,41.2c1,1,1,2.5,0,3.5l-2.6,2.6
	c-1,1-2.5,1-3.5,0L32,38.1l-9.2,9.2c-1,1-2.5,1-3.5,0l-2.6-2.6c-1-1-1-2.5,0-3.5l9.2-9.2l-9.2-9.2c-1-1-1-2.5,0-3.5l2.6-2.6
	c1-1,2.5-1,3.5,0l9.2,9.2l9.2-9.2c1-1,2.5-1,3.5,0l2.6,2.6c1,1,1,2.5,0,3.5L38.1,32L47.3,41.2z"/>
</svg>
