<svg xmlns="http://www.w3.org/2000/svg" viewBox="0 0 62.39 63">
<path d="M47.47,15.5C40,8.07,27.11,6.69,18.93,14.88,13.84,20,12.55,25.29,11.81,29.63S10.75,37.1,8,39.81l-6.5,6.51a5.38,5.38,0,0,0,0,7.56l0,0C0,56,7,62.93,9.06,61.39l.05,0a5.38,5.38,0,0,0,7.56,0L23.19,55C25.9,52.25,29,52,33.37,51.2s9.66-2,14.75-7.12C56.27,35.89,54.89,23,47.47,15.5Zm-34,42.67a.74.74,0,0,1-1,0l0,0-7.6-7.53a.74.74,0,0,1,0-1l0,0L9.86,44.5l8.64,8.64ZM44.85,40.84C40.56,45.13,36.72,46,32.58,46.7c-3.53.61-7.44,1-10.9,3.54l-8.91-8.91c2.5-3.47,2.94-7.38,3.54-10.9.71-4.14,1.57-8,5.86-12.27,6.28-6.28,16.31-5.12,22.06.62S51.13,34.56,44.85,40.84Z" transform="translate(0 0.01)"/><path d="M52.46,7.75l-2.7,2.75a2,2,0,1,0,2.88,2.88l2.71-2.71a2,2,0,1,0-2.88-2.88Z" transform="translate(0 0.01)"/><path d="M61.82,28.32h0a1.93,1.93,0,0,0-1.37-.56H57.53a1.94,1.94,0,1,0,0,3.87h2.92a1.94,1.94,0,0,0,1.37-3.31Z" transform="translate(0 0.01)"/><path d="M15,14.19a2,2,0,1,0,2.88-2.88L15.19,8.6a2,2,0,0,0-2.88,2.9Z" transform="translate(0 0.01)"/><path class="a" d="M51.79,45.2h0a2,2,0,0,0-2.88,2.88h0l2.71,2.71a2,2,0,1,0,2.88-2.88Z" transform="translate(0 0.01)"/><path d="M33.4,6.78a1.93,1.93,0,0,0,1.93-1.93h0V1.93A1.94,1.94,0,0,0,32,.56h0a1.93,1.93,0,0,0-.56,1.37V4.85a1.93,1.93,0,0,0,1.93,1.93Z" transform="translate(0 0.01)"/></svg>