<svg version="1.1" id="Layer_1" xmlns="http://www.w3.org/2000/svg" xmlns:xlink="http://www.w3.org/1999/xlink" x="0px" y="0px"
	 viewBox="-1 -1 66 66" style="enable-background:new 0 0 64 64;" xml:space="preserve">
<g id="XMLID_1_">
	<path id="XMLID_2_" d="M32,8c13.2,0,24,10.8,24,24S45.2,56,32,56S8,45.2,8,32S18.8,8,32,8 M32,0C14.3,0,0,14.3,0,32s14.3,32,32,32
		s32-14.3,32-32S49.7,0,32,0L32,0z"/>
</g>
<g id="XMLID_3_">
	<circle id="XMLID_4_" cx="24" cy="25" r="6"/>
</g>
<g id="XMLID_5_">
	<circle id="XMLID_6_" cx="40" cy="25" r="6"/>
</g>
<g id="XMLID_128_">
	<g id="XMLID_130_">
		<path id="XMLID_18_" d="M32,51c7.5,0,14-4.3,17.1-10.6c1-2-0.4-4.4-2.7-4.4H17.6c-2.2,0-3.7,2.3-2.7,4.4C18,46.7,24.5,51,32,51z"
			/>
	</g>
</g>
</svg>
