<svg xmlns="http://www.w3.org/2000/svg" viewBox="0 0 49.14 53.66">
<path d="M48.59.06H22a6.24,6.24,0,0,0-6.23,6.23V17.71h-6a4.07,4.07,0,0,0-4.07,4.06V46.92A4.08,4.08,0,0,0,9.75,51h7.06A6.22,6.22,0,0,0,22,53.73H48.59a6.24,6.24,0,0,0,6.23-6.23V6.29A6.24,6.24,0,0,0,48.59.06ZM9.75,48.65A1.72,1.72,0,0,1,8,46.92V21.77A1.73,1.73,0,0,1,9.75,20H23.93a1.73,1.73,0,0,1,1.73,1.73V46.92a1.72,1.72,0,0,1-1.73,1.73ZM23.93,17.71H23V8a1.59,1.59,0,0,1,1.58-1.59H45.93A1.59,1.59,0,0,1,47.52,8V43.06a1.59,1.59,0,0,1-1.59,1.58H28V21.77A4.07,4.07,0,0,0,23.93,17.71ZM52.48,47.5a3.89,3.89,0,0,1-3.89,3.89H22a3.82,3.82,0,0,1-1.72-.4h3.68A4.07,4.07,0,0,0,28,47H45.93a3.93,3.93,0,0,0,3.92-3.92V8a3.93,3.93,0,0,0-3.92-3.92H24.62A3.93,3.93,0,0,0,20.7,8v9.73H18.07V6.29A3.9,3.9,0,0,1,22,2.4H48.59a3.89,3.89,0,0,1,3.89,3.89Z" transform="translate(-5.68 -0.06)"/>
<path d="M35.28,47.64a1.42,1.42,0,1,0,1.41,1.42A1.42,1.42,0,0,0,35.28,47.64Z" transform="translate(-5.68 -0.06)"/><path d="M24.61,24.74A2.6,2.6,0,0,0,22,22.15H11.66a2.6,2.6,0,0,0-2.59,2.59V44a2.59,2.59,0,0,0,2.59,2.59H22A2.59,2.59,0,0,0,24.61,44ZM22.28,44a.26.26,0,0,1-.26.26H11.66A.26.26,0,0,1,11.4,44V24.74a.26.26,0,0,1,.26-.25H22a.26.26,0,0,1,.26.25Z" transform="translate(-5.68 -0.06)"/>
<path d="M16.84,21.4a.41.41,0,1,0-.41-.41A.41.41,0,0,0,16.84,21.4Z" transform="translate(-5.68 -0.06)"/><circle cx="11.16" cy="47.58" r="0.58"/></svg>