<svg xmlns="http://www.w3.org/2000/svg" viewBox="0 0 56.67 61.52"><title>icon-broken-link</title><path d="M46.9,31h0a3.49,3.49,0,0,0-2.55,4.23l1.84,7.47a3.51,3.51,0,0,0,4.22,2.56h0A3.5,3.5,0,0,0,53,41l-1.85-7.46A3.5,3.5,0,0,0,46.9,31Z" transform="translate(-3.72 -1.24)"/><path d="M57.85,24l-4.72-1.36a3.5,3.5,0,1,0-1.93,6.73l4.72,1.36a3.59,3.59,0,0,0,1.78,0A3.5,3.5,0,0,0,57.85,24Z" transform="translate(-3.72 -1.24)"/><path d="M41.53,26.77a3.3,3.3,0,0,0-2.24-1.44,3.41,3.41,0,0,0-4,2.74,6.12,6.12,0,0,1-.48,1.52l0,0-.09.19A3.3,3.3,0,0,0,33.42,27a13.05,13.05,0,0,0-10-2.26l5.83-13.08A6.22,6.22,0,0,1,40.86,16s-.3,1.07-.52,1.57a3.44,3.44,0,0,0,4.47,4.51,3.58,3.58,0,0,0,1.9-1.87A13.41,13.41,0,0,0,47.79,15,12.79,12.79,0,0,0,40.18,2.41a12.42,12.42,0,0,0-9.86-.29,13,13,0,0,0-7.14,6.81L16.81,23a3.23,3.23,0,0,0-.07,2.6,3.38,3.38,0,0,0,1.15,1.49,12.83,12.83,0,0,0-2.56,2.59L6.2,42.14A13,13,0,0,0,18.52,62.62a12.8,12.8,0,0,0,8.44-5l9.12-12.52a3.31,3.31,0,0,0-.71-4.64,3.23,3.23,0,0,0-1-.5A12.93,12.93,0,0,0,40,34.41a13.35,13.35,0,0,0,2-5A3.56,3.56,0,0,0,41.53,26.77ZM26.12,33.93a3.32,3.32,0,0,0-4.39,1.68,3.27,3.27,0,0,0-.07,2.6,3.47,3.47,0,0,0,1.79,1.88,12.94,12.94,0,0,0,7.34,1l-.07.07L21.59,53.55a6.22,6.22,0,0,1-10-7.37l9.22-12.54a6.28,6.28,0,0,1,8.7-1.32,3.3,3.3,0,0,0,3.76.11A6.28,6.28,0,0,1,26.12,33.93Z" transform="translate(-3.72 -1.24)"/></svg>