<?xml version="1.0" encoding="utf-8"?>
<!-- Generator: Adobe Illustrator 18.1.1, SVG Export Plug-In . SVG Version: 6.00 Build 0)  -->
<!DOCTYPE svg PUBLIC "-//W3C//DTD SVG 1.1//EN" "http://www.w3.org/Graphics/SVG/1.1/DTD/svg11.dtd">
<svg version="1.1" id="Layer_1" xmlns="http://www.w3.org/2000/svg" xmlns:xlink="http://www.w3.org/1999/xlink" x="0px" y="0px"
	 viewBox="0 0 64 64" style="enable-background:new 0 0 64 64;" xml:space="preserve">
<path d="M63.2,52.2l-27.5-46c-1.8-3-5.7-3-7.5,0l-27.5,46c-2,3.3,0.1,7.8,3.7,7.8h55C63.1,60,65.2,55.5,63.2,52.2z M32,17
	c2,0,3.6,1.7,3.6,3.8c0,1.1-0.5,11.8-0.7,17.6c0,1.6-1.3,2.9-2.9,2.9c-1.5,0-2.8-1.3-2.8-2.9c-0.3-5.8-0.8-16.5-0.8-17.6
	C28.3,18.7,29.9,17,32,17z M32,54c-2.2,0-4-1.8-4-4c0-2.2,1.8-4,4-4s4,1.8,4,4C36,52.2,34.2,54,32,54z"/>
</svg>
