<?xml version="1.0" encoding="utf-8"?>
<!-- Generator: Adobe Illustrator 20.1.0, SVG Export Plug-In . SVG Version: 6.00 Build 0)  -->
<svg version="1.1" id="Layer_1" xmlns="http://www.w3.org/2000/svg" xmlns:xlink="http://www.w3.org/1999/xlink" x="0px" y="0px"
	 viewBox="0 0 64 64" style="enable-background:new 0 0 64 64;" xml:space="preserve">
<style type="text/css">
	.st0{fill:none;stroke:#000000;stroke-miterlimit:10;}
</style>
<title>icon-more-circular</title>
<path class="st0" d="M123.6,25.9"/>
<path d="M195.4,6.2"/>
<path d="M32,0C14.3,0,0,14.3,0,32s14.3,32,32,32s32-14.3,32-32S49.7,0,32,0z M32,46c-1.9,0-3.5-1.6-3.5-3.5S30.1,39,32,39
	s3.5,1.6,3.5,3.5S33.9,46,32,46z M32,35.5c-1.9,0-3.5-1.6-3.5-3.5s1.6-3.5,3.5-3.5s3.5,1.6,3.5,3.5S33.9,35.5,32,35.5z M32,25
	c-1.9,0-3.5-1.6-3.5-3.5S30.1,18,32,18s3.5,1.6,3.5,3.5S33.9,25,32,25z"/>
</svg>
