<svg version="1.1" id="Layer_1" xmlns="http://www.w3.org/2000/svg" xmlns:xlink="http://www.w3.org/1999/xlink" x="0px" y="0px"
	 viewBox="0 0 64 64" enable-background="new 0 0 64 64" xml:space="preserve">
<path d="M32,12C18,12,5.9,20.1,0,32c5.9,11.9,18,20,32,20c14,0,26.1-8.1,32-20C58.1,20.1,46,12,32,12z M47.8,22.6
	c3.8,2.4,6.9,5.6,9.3,9.4c-2.4,3.8-5.6,7-9.3,9.4C43.1,44.4,37.6,46,32,46c-5.6,0-11.1-1.6-15.8-4.6C12.5,39,9.3,35.8,6.9,32
	c2.4-3.8,5.6-7,9.3-9.4c0.2-0.2,0.5-0.3,0.7-0.5c-0.6,1.7-1,3.6-1,5.5c0,8.8,7.2,16,16,16s16-7.2,16-16c0-1.9-0.3-3.8-1-5.5
	C47.3,22.3,47.5,22.5,47.8,22.6z M32,25.6c0,3.3-2.7,6-6,6s-6-2.7-6-6s2.7-6,6-6S32,22.3,32,25.6z"/>
</svg>
