<svg xmlns="http://www.w3.org/2000/svg" viewBox="0 0 62.46839 56.83447"><title>icon-school</title><path d="M58.66515,60.41723h-23.675V47.356a1.9829,1.9829,0,0,0-1.98085-1.98H31.89414a1.98251,1.98251,0,0,0-1.9804,1.98V60.41723H5.3344A4.5734,4.5734,0,0,1,.7658,55.84909V25.66632a4.57378,4.57378,0,0,1,4.5686-4.56859H19.23889l8.602-8.14139V7.77591a4.1979,4.1979,0,0,1,4.19315-4.19314h6.35073a4.19315,4.19315,0,0,1,0,8.38629H36.22724v.911l8.67158,8.21764H58.66515a4.57417,4.57417,0,0,1,4.56905,4.56859V55.84909A4.57378,4.57378,0,0,1,58.66515,60.41723ZM38.66472,56.74262H58.66515a.895.895,0,0,0,.89444-.89353V25.66632a.89506.89506,0,0,0-.89444-.894H43.43472L32.55263,14.45992V8.29445h5.83219a.51854.51854,0,0,0,0-1.03707H32.03409a.51937.51937,0,0,0-.51854.51853V14.538L20.7021,24.77234H5.3344a.895.895,0,0,0-.894.894V55.84909a.89487.89487,0,0,0,.894.89353H26.23913V47.356a5.66133,5.66133,0,0,1,5.655-5.65456h1.11512A5.66171,5.66171,0,0,1,38.66472,47.356ZM32.08523,35.75984a6.17691,6.17691,0,1,1,6.17758-6.17714A6.184,6.184,0,0,1,32.08523,35.75984Zm0-8.67921a2.5023,2.5023,0,1,0,2.503,2.50207A2.50475,2.50475,0,0,0,32.08523,27.08063Z" transform="translate(-0.7658 -3.58277)"/></svg>