<svg xmlns="http://www.w3.org/2000/svg" viewBox="0 0 61.11 49.67"><title>BIA-icon-twitter</title><path d="M43.43,7.17A12.53,12.53,0,0,0,31.22,19.7a12.86,12.86,0,0,0,.32,2.86A35.56,35.56,0,0,1,5.7,9.46,12.55,12.55,0,0,0,9.58,26.2,12.53,12.53,0,0,1,3.9,24.63v.16A12.53,12.53,0,0,0,14,37.08a12.47,12.47,0,0,1-3.31.44,13.11,13.11,0,0,1-2.36-.22A12.55,12.55,0,0,0,20,46,25.09,25.09,0,0,1,4.44,51.37a24.79,24.79,0,0,1-3-.17,35.47,35.47,0,0,0,19.22,5.63c23.06,0,35.68-19.1,35.68-35.67,0-.55,0-1.09,0-1.63A25.26,25.26,0,0,0,62.56,13a25,25,0,0,1-7.2,2,12.53,12.53,0,0,0,5.51-6.94,25.15,25.15,0,0,1-8,3.05,12.52,12.52,0,0,0-9.15-4Z" transform="translate(-1.44 -7.17)"/></svg>