<?xml version="1.0" encoding="utf-8"?>
<!-- Generator: Adobe Illustrator 17.1.0, SVG Export Plug-In . SVG Version: 6.00 Build 0)  -->
<!DOCTYPE svg PUBLIC "-//W3C//DTD SVG 1.1//EN" "http://www.w3.org/Graphics/SVG/1.1/DTD/svg11.dtd">
<svg version="1.1" id="Layer_1" xmlns="http://www.w3.org/2000/svg" xmlns:xlink="http://www.w3.org/1999/xlink" x="0px" y="0px"
	 viewBox="0 0 64 64" enable-background="new 0 0 64 64" xml:space="preserve">
<path d="M32,0C14.3,0,0,14.3,0,32c0,17.7,14.3,32,32,32s32-14.3,32-32C64,14.3,49.7,0,32,0z M49,37H25.7l9.2,8.7
	c1.6,1.6,1.6,3.8,0,5.4c-0.8,0.8-1.8,1-2.8,1s-2-0.5-2.8-1.2L10.3,32l18.8-18.8c1.6-1.6,4.1-1.6,5.7,0c1.6,1.6,1.6,4.6,0,6.2
	L25.7,29H49c2.2,0,4,1.8,4,4S51.2,37,49,37z"/>
</svg>
