<svg xmlns="http://www.w3.org/2000/svg" viewBox="0 0 64 63.96721"><title>icon-msft-external-link</title><path d="M33.90164,32.27869a2.45906,2.45906,0,0,0,1.7377-.72131L58.78688,8.40984V20.37705a2.459,2.459,0,0,0,4.918,0V2.47541a2.459,2.459,0,0,0-2.459-2.459H43.34426a2.459,2.459,0,0,0,0,4.918H55.31148L32,28.082a2.459,2.459,0,0,0,1.7377,4.19672Z" transform="translate(0 -0.01639)"/><path d="M61.5082,34.63935a2.459,2.459,0,0,0-2.459,2.459V57.42623a1.60656,1.60656,0,0,1-1.60656,1.60656H6.55738a1.60656,1.60656,0,0,1-1.60656-1.60656V6.541A1.60656,1.60656,0,0,1,6.55738,4.93443h19.2459a2.459,2.459,0,0,0,0-4.918H6.55738A6.55738,6.55738,0,0,0,0,6.57377H0V57.42623a6.55738,6.55738,0,0,0,6.55738,6.55738H57.44262A6.55737,6.55737,0,0,0,64,57.42623V37.09836a2.459,2.459,0,0,0-2.4588-2.45923Z" transform="translate(0 -0.01639)"/></svg>