<svg xmlns="http://www.w3.org/2000/svg" viewBox="0 0 250 244.6">
<path class="a" d="M78.5,172.1h93a11,11,0,0,0,0-22h-93a11,11,0,0,0,0,22Z" transform="translate(0 0)"/><path class="a" d="M78.5,205.1h93a11,11,0,0,0,0-22h-93a11,11,0,0,0,0,22Z" transform="translate(0 0)"/><path class="a" d="M250,48.2H219.07V11a11,11,0,0,0-11-11H49.93a11,11,0,0,0-11,11V48.2H0v138H34.93v47.4a11,11,0,0,0,11,11H204.07a11,11,0,0,0,11-11V186.22H250ZM60.93,22H197.07V48.2H60.93ZM193.07,222.6H56.93V137H193.07Z" transform="translate(0 0)"/></svg>