<?xml version="1.0" encoding="utf-8"?>
<!-- Generator: Adobe Illustrator 20.1.0, SVG Export Plug-In . SVG Version: 6.00 Build 0)  -->
<svg version="1.1" id="Layer_1" xmlns="http://www.w3.org/2000/svg" xmlns:xlink="http://www.w3.org/1999/xlink" x="0px" y="0px"
	 viewBox="0 0 64 64" style="enable-background:new 0 0 64 64;" xml:space="preserve">
<title>icon-projector-circular</title>
<path d="M46,18h-8.8c0-1.1-0.9-2-2-2h-6.5c-1.1,0-2,0.9-2,2H18c-1.1,0-2,0.9-2,2c0,1.1,0.9,2,2,2h0.5v17.5c0,0,0,0,0,0
	c0,1.4,1.1,2.5,2.5,2.5h5.6l-2.9,2.5l-0.1,0.1c-0.8,0.7-0.9,1.9-0.1,2.7c0.4,0.4,0.9,0.7,1.5,0.7c0.5,0,0.9-0.2,1.3-0.5l5.7-4.9
	l5.7,4.9c0.4,0.3,0.8,0.5,1.3,0.5c0.6,0,1.1-0.3,1.5-0.7c0.7-0.8,0.7-2.1-0.2-2.8L37.4,42H43c0,0,0,0,0,0c1.4,0,2.5-1.1,2.5-2.5V22
	H46c1.1,0,2-0.9,2-2C48,18.9,47.1,18,46,18z M41.5,38h-19V22h19V38z"/>
</svg>
