<svg xmlns="http://www.w3.org/2000/svg" viewBox="0 0 55.76 54.51">
<path d="M9.18,46.75H44.75a2,2,0,0,0,2-2V2a2,2,0,0,0-2-2H14.94l-.2.06-.2.11-.15.08a1.42,1.42,0,0,0-.3.25L.59,14.08a2.42,2.42,0,0,0-.25.31l-.08.15a1.24,1.24,0,0,0-.1.2,1.18,1.18,0,0,0-.07.2v.17a2.54,2.54,0,0,0,0,.39V44.75a2,2,0,0,0,2,2H9.18ZM13.5,6.83V13.5H6.83ZM4,17.5H15.5a2,2,0,0,0,2-2V4H42.75V42.75H4Z" transform="translate(-0.08 0.01)"/>
<path d="M53.84,7.75H50.5a2,2,0,0,0,0,4h1.34V50.5H11.18a2,2,0,0,0,0,4H53.84a2,2,0,0,0,2-2V9.75A2,2,0,0,0,53.84,7.75Z" transform="translate(-0.08 0.01)"/></svg>