<?xml version="1.0" encoding="utf-8"?>
<!-- Generator: Adobe Illustrator 20.1.0, SVG Export Plug-In . SVG Version: 6.00 Build 0)  -->
<svg version="1.1" id="Layer_1" xmlns="http://www.w3.org/2000/svg" xmlns:xlink="http://www.w3.org/1999/xlink" x="0px" y="0px"
	 viewBox="0 0 64 64" style="enable-background:new 0 0 64 64;" xml:space="preserve">
<g>
	<path d="M63,7.1c0,1.8-1.5,3.3-3.3,3.3H22.8c-1.8,0-3.3-1.5-3.3-3.3l0,0c0-1.8,1.5-3.3,3.3-3.3h36.9C61.5,3.8,63,5.3,63,7.1L63,7.1
		z"/>
	<circle cx="6.5" cy="7.1" r="5.5"/>
	<path d="M63,32c0,1.8-1.5,3.3-3.3,3.3H22.8c-1.8,0-3.3-1.5-3.3-3.3l0,0c0-1.8,1.5-3.3,3.3-3.3h36.9C61.5,28.7,63,30.2,63,32L63,32z
		"/>
	<circle cx="6.5" cy="32" r="5.5"/>
	<path d="M63,56.9c0,1.8-1.5,3.3-3.3,3.3H22.8c-1.8,0-3.3-1.5-3.3-3.3l0,0c0-1.8,1.5-3.3,3.3-3.3h36.9C61.5,53.6,63,55.1,63,56.9
		L63,56.9z"/>
	<circle cx="6.5" cy="56.9" r="5.5"/>
</g>
</svg>
