<?xml version="1.0" encoding="utf-8"?>
<!-- Generator: Adobe Illustrator 20.1.0, SVG Export Plug-In . SVG Version: 6.00 Build 0)  -->
<svg version="1.1" id="Layer_1" xmlns="http://www.w3.org/2000/svg" xmlns:xlink="http://www.w3.org/1999/xlink" x="0px" y="0px"
	 viewBox="0 0 64 64" style="enable-background:new 0 0 64 64;" xml:space="preserve">
<style type="text/css">
	.st0{fill:none;stroke:#000000;stroke-miterlimit:10;}
</style>
<title>icon-lock-open</title>
<path class="st0" d="M123.7,26.1"/>
<path d="M195.5,6.5"/>
<g>
	<g>
		<path d="M16.7,46h-0.2c-0.6,0-2-0.5-2-2v-0.4c-1.5,1.7-3.9,2.6-6.5,2.6c-3.3,0-7-2.2-7-6.6c0-4.6,3.7-6.5,7-6.5
			c2.7,0,5,0.9,6.4,2.6v-3.1c0-2.3-1.9-3.7-4.7-3.7c-1.7,0-3.3,0.5-4.8,1.5c-0.2,0.2-0.6,0.3-0.9,0.3c-0.8,0-1.7-0.7-1.7-1.7
			c0-0.3,0.1-0.7,0.3-1c1.6-2,5.3-2.8,7.8-2.8c4.4,0,8.4,1.9,8.4,7.3v11.3C18.9,45,17.9,46,16.7,46z M14.5,38.1c-1-1.3-2.8-2-4.7-2
			c-2.4,0-4.2,1.3-4.2,3.5c0,2.1,1.8,3.5,4.2,3.5c1.9,0,3.7-0.7,4.7-2V38.1z"/>
		<path d="M8,47.2c-3.9,0-8-2.7-8-7.6c0-5.2,4.1-7.5,8-7.5c2.1,0,3.9,0.5,5.4,1.4v-0.9c0-2-1.9-2.7-3.7-2.7c-1.5,0-2.9,0.4-4.2,1.3
			c-0.4,0.4-1.1,0.5-1.5,0.5c-1.3,0-2.7-1.1-2.7-2.7c0-0.5,0.2-1.1,0.5-1.6c2.1-2.6,6.4-3.2,8.6-3.2c5.9,0,9.4,3.1,9.4,8.3v11.3
			c0.1,0.8-0.2,1.6-0.8,2.2c-0.6,0.6-1.4,1-2.3,1h-0.2c-0.9,0-2-0.5-2.6-1.5C12.3,46.6,10.2,47.2,8,47.2z M8,34.1
			c-2.2,0-6,1.2-6,5.5c0,4.1,3.6,5.6,6,5.6c2.2,0,4.2-0.7,5.5-2c-1.1,0.6-2.3,0.9-3.7,0.9c-3,0-5.2-1.9-5.2-4.5
			c0-2.6,2.1-4.5,5.2-4.5c1.2,0,2.3,0.2,3.3,0.7C11.9,34.7,10.1,34.1,8,34.1z M15.5,41v3c0,0.9,1,1,1,1h0.2c0.3,0,0.6-0.1,0.8-0.4
			c0.2-0.2,0.3-0.5,0.3-0.8l0-11.4c0-5.5-4.6-6.3-7.4-6.3c-2.5,0-5.7,0.8-7,2.4c0,0.1-0.1,0.3-0.1,0.4c0,0.4,0.4,0.7,0.7,0.7
			c0.1,0,0.2,0,0.2-0.1l0.1-0.1c1.7-1.1,3.5-1.7,5.4-1.7c3.4,0,5.7,1.9,5.7,4.7v5l0.1,0.1V41z M9.8,37.1c-1.5,0-3.2,0.7-3.2,2.5
			c0,1.7,1.6,2.5,3.2,2.5c1.5,0,2.9-0.5,3.7-1.4v-2.3C12.7,37.6,11.3,37.1,9.8,37.1z"/>
	</g>
	<g>
		<path d="M33.5,46.2c-2.6,0-4.9-1.2-6.4-3.2v0.8c0,1.2-1,2.2-2.2,2.2s-2.2-1-2.2-2.2V19.9c0-1.2,1-2.2,2.3-2.2c1.2,0,2.2,1,2.2,2.2
			v8.5c1.6-2.1,3.9-3.2,6.4-3.2c5.2,0,8.9,4.1,8.9,10.6C42.4,42.3,38.7,46.2,33.5,46.2z M32.2,29.1c-2,0-4.1,1.2-5.1,2.7v7.9
			c1,1.5,3.1,2.6,5.1,2.6c3.4,0,5.7-2.7,5.7-6.6C37.8,31.9,35.6,29.1,32.2,29.1z"/>
		<path d="M33.5,47.2c-2.1,0-4.1-0.7-5.7-2c-0.5,1.1-1.6,1.8-2.9,1.8c-1.8,0-3.2-1.4-3.2-3.2V19.9c0-1.8,1.5-3.2,3.3-3.2
			c1.8,0,3.2,1.4,3.2,3.2V26c1.5-1.2,3.4-1.8,5.4-1.8c5.9,0,9.9,4.7,9.9,11.6C43.4,42.6,39.4,47.2,33.5,47.2z M26.8,40.9l1.1,1.5
			c1.3,1.8,3.4,2.8,5.6,2.8c4.8,0,7.9-3.7,8-9.4c0-5.8-3.1-9.6-7.9-9.6c-2.2,0-4.2,1-5.6,2.8l-1.1,1.5c1.3-1.4,3.4-2.4,5.3-2.4
			c3.8,0,6.6,3.1,6.7,7.6c0,4.5-2.8,7.6-6.7,7.6C30.2,43.3,28.1,42.4,26.8,40.9z M25,18.7c-0.7,0-1.3,0.5-1.3,1.2v23.9
			c0,0.7,0.5,1.2,1.2,1.2s1.2-0.5,1.2-1.2V31.5l0.1-0.2V19.9C26.2,19.2,25.6,18.7,25,18.7z M28.1,39.4c0.9,1.1,2.6,1.9,4.1,1.9
			c2.8,0,4.7-2.2,4.7-5.6c-0.1-3.3-2-5.6-4.7-5.6c-1.5,0-3.2,0.9-4.1,2V39.4z"/>
	</g>
	<g>
		<path d="M62.3,44c-1.5,1.3-3.5,2.2-6.4,2.2c-6.1,0-10.4-4.4-10.4-10.6c0-6.1,4.3-10.5,10.4-10.5c3.1,0,5.6,1.1,6.8,2.7
			c0.2,0.2,0.3,0.6,0.3,0.9c0,1.2-1,1.9-2.1,1.9c-0.5,0-0.9-0.1-1.3-0.4c-1-0.8-2.2-1.2-3.5-1.2c-3.6,0-6,2.7-6,6.6s2.4,6.6,6,6.6
			c1.3,0,2.5-0.4,3.5-1.2c0.4-0.3,0.8-0.4,1.3-0.4c1.1,0,2.1,0.8,2.1,2C63,43.1,62.8,43.7,62.3,44z"/>
		<path d="M55.9,47.2c-6.6,0-11.4-4.9-11.4-11.6c0-6.7,4.8-11.5,11.4-11.5c3.3,0,6.1,1.1,7.6,3.1c0.4,0.4,0.5,1.1,0.5,1.5
			c0,1.7-1.3,2.9-3.1,2.9c-0.8,0-1.4-0.2-1.9-0.6c-0.8-0.7-1.8-1-2.9-1c-3,0-5,2.2-5,5.6c0,3.4,2,5.6,5,5.6c1.1,0,2.1-0.3,2.9-1
			c0.6-0.4,1.2-0.6,1.9-0.6c1.7,0,3.1,1.3,3.1,3c0,0.7-0.3,1.7-1.1,2.2C61,46.4,58.7,47.2,55.9,47.2z M55.9,26.1
			c-5.5,0-9.4,3.9-9.4,9.5c0,5.7,3.9,9.6,9.4,9.6c2.3,0,4.2-0.6,5.7-2l0.1-0.1c0.1-0.1,0.2-0.3,0.2-0.5c0-0.6-0.6-1-1.1-1
			c-0.4,0-0.5,0.1-0.7,0.2c-1.1,0.9-2.6,1.4-4.1,1.4c-4.1,0-7-3.1-7-7.6c0-4.5,2.9-7.6,7-7.6c1.5,0,3,0.5,4.1,1.4
			c0.1,0.1,0.3,0.2,0.7,0.2c0.4,0,1.1-0.2,1.1-0.9c0-0.1,0-0.2-0.1-0.2C60.8,27,58.5,26.1,55.9,26.1z"/>
	</g>
</g>
</svg>
