<?xml version="1.0" encoding="utf-8"?>
<!-- Generator: Adobe Illustrator 22.0.1, SVG Export Plug-In . SVG Version: 6.00 Build 0)  -->
<svg version="1.1" id="Layer_1" xmlns="http://www.w3.org/2000/svg" xmlns:xlink="http://www.w3.org/1999/xlink" x="0px" y="0px"
	 viewBox="0 0 52.7 62.2" style="enable-background:new 0 0 52.7 62.2;" xml:space="preserve">
<g>
	<path d="M46.4,11.2H35.7v-0.6c0-5.2-4.2-9.4-9.4-9.4c-5.2,0-9.4,4.2-9.4,9.4v0.6H6.4c-2.8,0-5,2.3-5,5v5.3c0,2.4,1.7,4.5,4,4.9
		l1.6,30.7c0.1,2.7,2.4,4.8,5,4.8h28.9c2.7,0,4.9-2.1,5-4.8l1.6-30.7c2.3-0.5,4-2.5,4-4.9v-5.3C51.5,13.5,49.2,11.2,46.4,11.2z
		 M26.3,7.2c1.8,0,3.3,1.5,3.4,3.3H23C23,8.7,24.5,7.2,26.3,7.2z M45.5,17.2v3H7.3v-3H45.5z M39.9,56H12.9l-1.5-29.4h30.1L39.9,56z"
		/>
	<path d="M17.5,29.2c-1.7,0.1-2.9,1.5-2.8,3.1l0.9,16.8c0.1,1.6,1.4,2.8,3,2.8c0.1,0,0.1,0,0.2,0c1.7-0.1,2.9-1.5,2.8-3.1L20.6,32
		C20.5,30.4,19.1,29.1,17.5,29.2z"/>
	<path d="M35.9,29.2c-1.6-0.1-3.1,1.2-3.1,2.8l-0.9,16.8c-0.1,1.7,1.2,3.1,2.8,3.1c0.1,0,0.1,0,0.2,0c1.6,0,2.9-1.2,3-2.8l0.9-16.8
		C38.8,30.7,37.6,29.3,35.9,29.2z"/>
	<path d="M26.7,29.9c-1.7,0-3,1.3-3,3v15.4c0,1.7,1.3,3,3,3c1.7,0,3-1.3,3-3V32.9C29.7,31.2,28.3,29.9,26.7,29.9z"/>
</g>
</svg>
