<svg version="1.1" id="Layer_1" xmlns="http://www.w3.org/2000/svg" xmlns:xlink="http://www.w3.org/1999/xlink" x="0px" y="0px"
	 viewBox="-1 -1 66 66" style="enable-background:new 0 0 64 64;" xml:space="preserve">
<g id="XMLID_26_">
	<path id="XMLID_14_" d="M32,8c13.2,0,24,10.8,24,24S45.2,56,32,56S8,45.2,8,32S18.8,8,32,8 M32,0C14.3,0,0,14.3,0,32s14.3,32,32,32
		s32-14.3,32-32S49.7,0,32,0L32,0z"/>
</g>
<g id="XMLID_25_">
	<circle id="XMLID_15_" cx="24" cy="25" r="6"/>
</g>
<g id="XMLID_24_">
	<circle id="XMLID_16_" cx="40" cy="25" r="6"/>
</g>
<g id="XMLID_171_">
	<g id="XMLID_144_">
		<path id="XMLID_282_" d="M43,47c-0.8,0-1.6-0.2-2.3-0.7c-2.5-1.8-5.5-2.8-8.7-2.8s-6.1,1-8.7,2.8c-1.8,1.3-4.3,0.9-5.6-0.9
			c-1.3-1.8-0.9-4.3,0.9-5.6c3.9-2.8,8.5-4.2,13.3-4.2s9.4,1.5,13.3,4.2c1.8,1.3,2.2,3.8,0.9,5.6C45.5,46.4,44.2,47,43,47z"/>
	</g>
</g>
</svg>
