<?xml version="1.0" encoding="utf-8"?>
<!-- Generator: Adobe Illustrator 20.1.0, SVG Export Plug-In . SVG Version: 6.00 Build 0)  -->
<svg version="1.1" id="Layer_1" xmlns="http://www.w3.org/2000/svg" xmlns:xlink="http://www.w3.org/1999/xlink" x="0px" y="0px"
	 viewBox="0 0 64 64" style="enable-background:new 0 0 64 64;" xml:space="preserve">
<title>icon-extension-question</title>
<path d="M195.5,6.1"/>
<path d="M52.1,38H36.9v15.3c-0.2,2.8-2.6,5-5.4,4.8c-2.6-0.2-4.6-2.2-4.8-4.8V38H11.4c-2.8,0.2-5.2-2-5.4-4.8s2-5.2,4.8-5.4
	c0.2,0,0.4,0,0.6,0h15.4V12.6c-0.2-2.8,2-5.2,4.8-5.4s5.2,2,5.4,4.8c0,0.2,0,0.4,0,0.6v15.3h15.3c2.8-0.2,5.2,2,5.4,4.8
	c0.2,2.8-2,5.2-4.8,5.4C52.6,38,52.4,38,52.1,38L52.1,38z"/>
</svg>
