<?xml version="1.0" encoding="utf-8"?>
<!-- Generator: Adobe Illustrator 20.1.0, SVG Export Plug-In . SVG Version: 6.00 Build 0)  -->
<svg version="1.1" id="Layer_1" xmlns="http://www.w3.org/2000/svg" xmlns:xlink="http://www.w3.org/1999/xlink" x="0px" y="0px"
	 viewBox="0 0 64 64" style="enable-background:new 0 0 64 64;" xml:space="preserve">
<title>48_px - Regular - 70 Basic Icons</title>
<g>
	<path d="M28.1,38.7l-19.9-12c-4.3-2.6-4.3-8.8,0-11.4L29,2.7c2.1-1.3,4.8-1.3,6.9,0l19.9,12c4.3,2.6,4.3,8.8,0,11.4L35,38.7
		C32.9,40,30.2,40,28.1,38.7z M11.3,20.9l20.3,11.8l21.1-12.3L32.4,8.6L11.3,20.9z"/>
</g>
<g>
	<path d="M30.1,51.4L5.4,36.5c-1.4-0.8-1.8-2.6-1-4l0,0c0.8-1.4,2.6-1.8,4-1l23.1,14L55.5,31c1.4-0.8,3.2-0.4,4,1l0,0
		c0.8,1.4,0.4,3.2-1,4L33.1,51.4C32.2,52,31,52,30.1,51.4z"/>
</g>
<g>
	<path d="M30.1,62L5.4,47.1c-1.4-0.8-1.8-2.6-1-4l0,0c0.8-1.4,2.6-1.8,4-1l23.1,14l23.9-14.5c1.4-0.8,3.2-0.4,4,1l0,0
		c0.8,1.4,0.4,3.2-1,4L33.1,62C32.2,62.6,31,62.6,30.1,62z"/>
</g>
</svg>
