<?xml version="1.0" encoding="utf-8"?>
<!-- Generator: Adobe Illustrator 20.1.0, SVG Export Plug-In . SVG Version: 6.00 Build 0)  -->
<svg version="1.1" id="Layer_1" xmlns="http://www.w3.org/2000/svg" xmlns:xlink="http://www.w3.org/1999/xlink" x="0px" y="0px"
	 viewBox="0 0 64 64" style="enable-background:new 0 0 64 64;" xml:space="preserve">
<style type="text/css">
	.st0{stroke:#000000;stroke-miterlimit:10;}
</style>
<title>icon-lock-open</title>
<g>
	<g>
		<path class="st0" d="M62.7,23.5"/>
	</g>
	<g>
		<path d="M13.4,43.9c0,1.3-1.6,2.5-3,2.5s-3-1.2-3-2.5V24.6l-3,3.4c-0.4,0.4-0.7,0.6-1.2,0.6c-1,0-1.9-0.9-1.9-2.1
			c0-0.6,0.3-1,0.6-1.5l6.3-6.3c0.4-0.6,1.5-0.9,2.2-0.9c1.5,0,3.1,1.2,3.1,2.8v23.2H13.4z"/>
		<path d="M10.4,47.2c-1.7,0-3.7-1.5-3.7-3.3V26.6L5,28.6c-0.5,0.5-1,0.9-1.8,0.9c-1.5,0-2.7-1.3-2.7-2.8c0-0.8,0.4-1.4,0.7-1.9
			l0.1-0.1l6.3-6.3c0.5-0.7,1.8-1.1,2.8-1.1c1.8,0,3.9,1.5,3.9,3.6v23.9H14C13.6,46.1,11.8,47.2,10.4,47.2z M8.1,22.6v21.3
			c0,0.9,1.3,1.8,2.2,1.8s2.2-0.9,2.2-1.8v-0.7h0.2V20.8c0-1.2-1.3-2.1-2.4-2.1c-0.6,0-1.4,0.3-1.6,0.6l-6.3,6.4
			C2.2,26,2,26.2,2,26.6c0,0.7,0.5,1.3,1.2,1.3c0.2,0,0.3,0,0.7-0.4L8.1,22.6z"/>
	</g>
	<g>
		<path d="M36.4,45.7H20.1c-1.2,0-2.2-0.7-2.2-2.2c0-0.7,0.3-1.5,1-1.9c10.2-7.6,14.4-11.4,14.4-15.3c0-2.8-2.5-4.2-5.1-4.2
			c-2.4,0-4.5,0.7-6.1,2.1c-0.4,0.3-0.9,0.4-1.5,0.4c-1.2,0-2.2-0.9-2.2-2.2c0-0.4,0.1-0.7,0.4-1.2c1.6-2.2,5.8-3.6,9.3-3.6
			c5.5,0,10.2,2.8,10.2,8.4c0,5.1-4.6,10.6-12.1,15.1h10.3c1.2,0,2.2,1,2.2,2.2C38.6,44.7,37.6,45.7,36.4,45.7z"/>
		<path d="M36.4,46.5H20.1c-1.8,0-3-1.2-3-3c0-1.1,0.5-2,1.4-2.6c9.8-7.4,14-11.1,14-14.6c0-2.4-2.2-3.4-4.3-3.4
			c-2.2,0-4.1,0.7-5.7,1.9c-0.7,0.4-1.2,0.6-2,0.6c-1.7,0-3-1.3-3-3c0-0.7,0.3-1.2,0.6-1.6c1.9-2.6,6.4-3.9,9.9-3.9
			c6.5,0,10.9,3.7,10.9,9.1c0,4.7-3.7,9.9-10.3,14.4h7.8c1.6,0,3,1.4,3,3C39.4,45.1,38.1,46.5,36.4,46.5z M28.2,21.4
			c2.8,0,5.8,1.5,5.8,4.9c0,4.4-4.7,8.4-14.7,15.8c-0.6,0.4-0.7,0.9-0.7,1.3c0,1.4,1.1,1.5,1.5,1.5h16.3c0.8,0,1.5-0.8,1.5-1.6
			c0-0.8-0.7-1.5-1.5-1.5h-13l2.3-1.4C33.2,36,37.4,30.7,37.4,26c0-5.6-5.1-7.6-9.4-7.6c-3.6,0-7.3,1.4-8.7,3.3
			c-0.3,0.4-0.3,0.5-0.3,0.8c0,1,0.8,1.5,1.5,1.5c0.4,0,0.7-0.1,1.1-0.3C23.4,22.1,25.7,21.4,28.2,21.4z"/>
	</g>
	<g>
		<path d="M52.4,46.6c-4,0-8.1-1.5-9.7-3.7c-0.3-0.3-0.4-0.6-0.4-1c0-1.2,1-2.2,2.2-2.2c0.4,0,0.9,0.1,1.3,0.4
			c1.8,1.3,4.2,2.2,6.4,2.2c3.6,0,5.7-1.6,5.7-4.2c0-2.7-2.1-3.9-6.1-3.9c-1.8,0.1-3.6-0.4-3.6-2.2c0-1.2,0.9-2.2,2.2-2.2
			c3.9,0.1,6.9-0.6,6.9-3.6c0-2.5-2.5-3.9-5.5-3.9c-2.2,0-4.2,0.6-5.8,1.9c-0.4,0.3-0.7,0.4-1.2,0.4c-1,0-2.2-0.9-2.2-2.1
			c0-0.6,0.3-1.2,0.7-1.5c2.2-1.9,5.2-3.1,9-3.1c6.1,0,10.2,2.8,10.2,7.5c0,3.7-3.1,5.8-6.1,6.4c2.7,0.3,6.4,2.5,6.4,6.7
			C63,43.2,59,46.6,52.4,46.6z"/>
		<path d="M52.4,47.4c-4.4,0-8.5-1.6-10.3-4c-0.4-0.4-0.6-0.9-0.6-1.5c0-1.6,1.4-3,3-3c0.6,0,1.2,0.2,1.8,0.6c1.8,1.3,4,2.1,6,2.1
			c3.1,0,4.9-1.3,4.9-3.4c0-1.5-0.6-3.1-5.4-3.1C51,35,49.4,35,48.3,34c-0.6-0.5-0.9-1.2-0.9-2.1c0-1.7,1.3-3,3-3
			c2.8,0.1,4.6-0.3,5.5-1.1c0.4-0.4,0.7-1,0.7-1.7c0-2.2-2.4-3.1-4.8-3.1c-2.1,0-3.9,0.6-5.4,1.8c-0.5,0.3-1,0.6-1.7,0.6
			c-1.4,0-3-1.2-3-2.8c0-0.8,0.4-1.7,1.1-2.1c2.5-2.1,5.7-3.3,9.4-3.3c6.6,0,10.9,3.2,10.9,8.2c0,3.2-2,5.3-4.3,6.4
			c2.3,1,4.6,3.2,4.6,6.8c0.1,2.1-0.6,4-2,5.6C59.5,46.2,56.3,47.4,52.4,47.4z M44.5,40.3c-0.8,0-1.5,0.7-1.5,1.5
			c0,0.2,0.1,0.3,0.2,0.5c1.5,2.1,5.4,3.5,9.2,3.5c3.5,0,6.3-1,8-2.8c1.1-1.2,1.7-2.8,1.6-4.5c0-3.7-3.4-5.8-5.8-6L51.4,32l4.7-0.9
			c2.5-0.5,5.5-2.3,5.5-5.7c0-4.2-3.6-6.7-9.4-6.7c-3.4,0-6.2,1-8.5,3c-0.3,0.2-0.5,0.6-0.5,0.9c0,0.7,0.8,1.3,1.5,1.3
			c0.2,0,0.4,0,0.8-0.3c1.7-1.4,3.7-2.1,6.2-2.1c3.8,0,6.3,1.9,6.3,4.6c0,1.1-0.4,2.1-1.1,2.8c-1.2,1.2-3.3,1.7-6.5,1.5
			c-0.9,0-1.5,0.8-1.5,1.5c0,0.4,0.1,0.7,0.4,1c0.5,0.4,1.4,0.6,2.4,0.5c0,0,0,0,0,0c4.6,0,6.9,1.6,6.9,4.6c0,3-2.5,4.9-6.4,4.9
			c-2.3,0-4.9-0.9-6.9-2.4C45.1,40.5,44.8,40.3,44.5,40.3z"/>
	</g>
</g>
</svg>
