<?xml version="1.0" encoding="utf-8"?>
<!-- Generator: Adobe Illustrator 20.1.0, SVG Export Plug-In . SVG Version: 6.00 Build 0)  -->
<svg version="1.1" id="Layer_1" xmlns="http://www.w3.org/2000/svg" xmlns:xlink="http://www.w3.org/1999/xlink" x="0px" y="0px"
	 viewBox="0 0 64 64" style="enable-background:new 0 0 64 64;" xml:space="preserve">
<style type="text/css">
	.st0{fill:none;stroke:#000000;stroke-miterlimit:10;}
</style>
<title>icon-more-circular</title>
<path class="st0" d="M123.6,25.9"/>
<path d="M195.4,6.2"/>
<g transform="translate(0,-952.36218)">
	<path d="M23.9,953.4c-5.6,0-10.1,4.5-10.1,10.1c0,2.3,0.8,4.4,2,6.1H3.7c-1.1,0-2,1-2,2v12.1c0,1.1,1,2,2,2h2v27.6c0,1.1,1,2,2,2
		h48.5c1.1,0,2-1,2-2v-27.6h2c1.1,0,2-1,2-2v-12.1c0-1.1-1-2-2-2H48.2c1.3-1.7,2-3.8,2-6.1c0-5.6-4.5-10.1-10.1-10.1
		c-3.3,0-6.2,1.6-8.1,4.1C30.2,955,27.2,953.4,23.9,953.4z M23.9,957.4c3.4,0,6.1,2.7,6.1,6.1v6.1h-6.1c-3.4,0-6.1-2.7-6.1-6.1
		C17.8,960.1,20.5,957.4,23.9,957.4z M40.1,957.4c3.4,0,6.1,2.7,6.1,6.1c0,3.4-2.7,6.1-6.1,6.1H34v-6.1
		C34,960.1,36.7,957.4,40.1,957.4z M5.7,973.6c8.1,0,16.2,0,24.3,0v8.1c-8.1,0-16.2,0-24.3,0V973.6z M34,973.6c8.1,0,16.2,0,24.3,0
		v8.1c-8.1,0-16.2,0-24.3,0V973.6z M9.8,985.7H30v25.6H9.8V985.7z M34,985.7h20.2v25.6H34V985.7z"/>
</g>
</svg>
