<svg xmlns="http://www.w3.org/2000/svg" viewBox="0 0 60.5 53.79"><title>icon-newspaper</title><path d="M57.69,5.27H18.31a5.06,5.06,0,0,0-5.06,5.05V51.05a3,3,0,0,1-1,2.25l-.14.12a3,3,0,0,1-1.82.63,3,3,0,0,1-3-3V17.73a2.5,2.5,0,0,0-5,0V51.3c0,.08,0,.16,0,.24a8,8,0,0,0,12.32,6.23h43.1a5.07,5.07,0,0,0,5.06-5.06V10.32A5.06,5.06,0,0,0,57.69,5.27Zm0,47.5H18.25l.06-42.5,39.44.05Z" transform="translate(-2.25 -5.27)"/><path d="M23.74,31.41H53.25a2.5,2.5,0,0,0,2.5-2.5V16.1a2.5,2.5,0,0,0-2.5-2.5H23.74a2.5,2.5,0,0,0-2.5,2.5V28.91A2.5,2.5,0,0,0,23.74,31.41Zm2.5-12.81H50.75v7.81H26.24Z" transform="translate(-2.25 -5.27)"/><path d="M23.74,49.27H37.67a2.5,2.5,0,0,0,0-5H23.74a2.5,2.5,0,0,0,0,5Z" transform="translate(-2.25 -5.27)"/><path d="M53.25,44.27H46.92a2.5,2.5,0,0,0,0,5h6.33a2.5,2.5,0,0,0,0-5Z" transform="translate(-2.25 -5.27)"/><path d="M23.74,41H53.25a2.5,2.5,0,0,0,0-5H23.74a2.5,2.5,0,1,0,0,5Z" transform="translate(-2.25 -5.27)"/></svg>