<svg xmlns="http://www.w3.org/2000/svg" viewBox="0 0 60.87 55.3"><title>icon-shape--dog</title><path d="M16.3,55.1A4.69,4.69,0,0,0,21,59.8h4.7v-.2a2.83,2.83,0,0,0-3.1-2.9h0V47.3l-6.3,6.3v1.5Z" transform="translate(-0.98 -4.5)"/><path d="M47.5,48.9H41.2v4.9A4.66,4.66,0,0,0,43.8,58l1.4.7c1,.5,3,1,2.3-.4-1.1-2.4-2.2-4.1,0-9.4" transform="translate(-0.98 -4.5)"/><path d="M41.7,5.4c.3.1,4.6,1.3,5.1,4.1.6,3.1-2.6,8.7-5,9.6-1.7.6-4.9,1.1-6.5-.6-1.6-1.9-1.1-8.9,2.3-11.8" transform="translate(-0.98 -4.5)"/><path d="M36.4,20.5c1.9.9,4.7.4,6.2-.2,2.8-1.1,6.5-7.1,5.8-10.7-.6-3.3-4.5-4.7-4.8-4.8l5.1-.3c2.7,0,7.5,1.4,8.2,4.7a24.46,24.46,0,0,1-.1,5.8c.6,1,5.6-1,5,4.6A4.12,4.12,0,0,1,58.4,23c-2.5.4-3.9.2-4.4.9-.2.4-.2,8.6-.2,10.7h0V47.2s-.1,6.3,2,7.7c1,.7,2.1,1.5,2.9,2a3.14,3.14,0,0,1,1.4,2.6v.2H56.6a6.36,6.36,0,0,1-5.9-4.1l-2.8-7.4a1.54,1.54,0,0,0-1.5-1H20.8a1.16,1.16,0,0,0-1,.4L11.5,55v1.6a19.37,19.37,0,0,1,1.6,1.6c.4.5,0,1.6,0,1.6H8.4a1.58,1.58,0,0,1-1.6-1.6V52.9a6.45,6.45,0,0,1,.3-2L8,48.5A5.24,5.24,0,0,0,8.3,46L7.1,30.1c0-.4-1.4,3.2-2.8,2.8s-3.2-1.6-3.3-2c-.2-1.1,1.5-3,2.7-3.6a24.27,24.27,0,0,1,3.9-.5l19.2.4c2-.1,8.2-.2,10.2-.5.3,0-.5-3.2-.5-5.5-.1-.1-.1-.3-.1-.7m16-8.1a1.7,1.7,0,1,0,0,3.4,1.63,1.63,0,0,0,1.7-1.7A1.69,1.69,0,0,0,52.4,12.4Z" transform="translate(-0.98 -4.5)"/></svg>