<?xml version="1.0" encoding="utf-8"?>
<!-- Generator: Adobe Illustrator 20.1.0, SVG Export Plug-In . SVG Version: 6.00 Build 0)  -->
<svg version="1.1" id="Layer_1" xmlns="http://www.w3.org/2000/svg" xmlns:xlink="http://www.w3.org/1999/xlink" x="0px" y="0px"
	 viewBox="0 0 64 64" style="enable-background:new 0 0 64 64;" xml:space="preserve">
<path d="M32,1C14.9,1,1,14.9,1,32s13.9,31,31,31s31-13.9,31-31S49.1,1,32,1z M45.5,36.4h-9.6v9.8c0,1.8-1.5,3.3-3.3,3.3
	c-1.8,0-3.3-1.5-3.3-3.3v-9.8h-9.8c-1.8,0-3.3-1.5-3.3-3.3c0-1.8,1.5-3.3,3.3-3.3h9.8V18.9c0-1.8,1.5-3.3,3.3-3.3
	c1.8,0,3.3,1.5,3.3,3.3v10.9h9.6c1.8,0,3.3,1.5,3.3,3.3C48.8,34.9,47.3,36.4,45.5,36.4z"/>
</svg>
