<?xml version="1.0" encoding="utf-8"?>
<!DOCTYPE svg PUBLIC "-//W3C//DTD SVG 1.1//EN" "http://www.w3.org/Graphics/SVG/1.1/DTD/svg11.dtd">
<svg version="1.1" id="Layer_1" xmlns="http://www.w3.org/2000/svg" xmlns:xlink="http://www.w3.org/1999/xlink" x="0px" y="0px"
	 viewBox="0 0 64 64" enable-background="new 0 0 64 64" xml:space="preserve">
<g>
	<path d="M13.1,32.2c0,1.4,1.2,2.4,2.8,2.4c1.3,0,2.1-0.4,3.1-1.4v-2c-1-0.9-1.8-1.3-3.1-1.3C14.3,29.8,13.1,30.7,13.1,32.2z"/>
	<path d="M32.4,25C31,25,30,25.9,29,26.9v5.3c1,1,2,1.8,3.4,1.8c2.3,0,3.8-1.8,3.8-4.4C36.2,26.9,34.7,25,32.4,25z"/>
	<path d="M60,4H4C1.8,4,0,5.8,0,8v40c0,2.2,1.8,4,4,4h36.6l11.7,11.7c0.2,0.2,0.4,0.3,0.7,0.3c0.1,0,0.3,0,0.4-0.1
		c0.4-0.2,0.6-0.5,0.6-0.9V52h6c2.2,0,4-1.8,4-4V8C64,5.8,62.2,4,60,4z M22,34.9c0,0.8-0.5,1.1-1.4,1.1h-0.2c-0.4,0-1.5,0.1-1.5-1
		v-0.3c-1,1.1-2.5,1.8-4.3,1.8c-2.2,0-4.7-1.5-4.7-4.5c0-3.1,2.5-4.4,4.7-4.4c1.8,0,3.3,0.6,4.3,1.7v-2.1c0-1.5-1.2-2.5-3.1-2.5
		c-1.2,0-2.2,0.3-3.2,1c-0.2,0.1-0.4,0.2-0.6,0.2c-0.6,0-1.2-0.4-1.2-1.2c0-0.2,0.1-0.5,0.2-0.6c1.1-1.3,3.5-1.9,5.2-1.9
		c3,0,5.6,1.3,5.6,4.9V34.9z M33.3,36.6c-1.7,0-3.3-0.8-4.3-2.2v0.5c0,0.8-0.7,1.5-1.5,1.5S26,35.7,26,34.9V18.9
		c0-0.8,0.6-1.5,1.5-1.5c0.8,0,1.5,0.7,1.5,1.5v5.7c1-1.4,2.6-2.2,4.3-2.2c3.5,0,6,2.7,6,7.1C39.3,34,36.8,36.6,33.3,36.6z
		 M52.7,35.1c-1,0.9-2.4,1.5-4.3,1.5c-4.1,0-7-3-7-7.1c0-4.1,2.9-7.1,7-7.1c2.1,0,3.8,0.7,4.6,1.8c0.1,0.2,0.2,0.4,0.2,0.6
		c0,0.8-0.7,1.3-1.4,1.3c-0.3,0-0.6-0.1-0.9-0.3c-0.7-0.5-1.5-0.8-2.4-0.8c-2.4,0-4.1,1.8-4.1,4.4c0,2.6,1.6,4.5,4.1,4.5
		c0.9,0,1.7-0.3,2.4-0.8c0.3-0.2,0.6-0.3,0.9-0.3c0.7,0,1.4,0.5,1.4,1.3C53.2,34.5,53,34.8,52.7,35.1z"/>
</g>
</svg>