<svg xmlns="http://www.w3.org/2000/svg" viewBox="0 0 61.63 60.3"><title>icon-shape-cat</title><path d="M17.2,57.3A4.69,4.69,0,0,0,21.9,62h4.7v-.2a2.83,2.83,0,0,0-3.1-2.9h0V49.5l-6.3,6.3v1.5Z" transform="translate(-1.4 -1.8)"/><path d="M48.5,51.1H42.2V56a4.66,4.66,0,0,0,2.6,4.2l1.4.7c1,.5,3,1,2.3-.4-1.2-2.4-2.2-4.1,0-9.4" transform="translate(-1.4 -1.8)"/><path d="M45.8,5.8S46,2.9,47.1,2a.52.52,0,0,1,.4-.2C49.1,1.7,50,5.3,50,5.3Z" transform="translate(-1.4 -1.8)"/><path d="M44.9,7.1a25.92,25.92,0,0,1,4.8-.4c2.7,0,7.4-.1,9.2,2.7l2.9,5.8c.6,1,1.7,3,1,4.6-.8,1.8-2.1,4.2-3.4,4.4-2.5.4-3.9,1.2-4.4,1.9-.2.4-.2,8.6-.2,10.7h0V49.4s-.1,6.3,2,7.7c1,.7,2.1,1.5,2.9,2a3.14,3.14,0,0,1,1.4,2.6V62H57.6a6.36,6.36,0,0,1-5.9-4.1l-2.8-7.4a1.54,1.54,0,0,0-1.5-1H21.8a1.16,1.16,0,0,0-1,.4l-8.3,7.4v1.6a19.37,19.37,0,0,1,1.6,1.6c.4.5,0,1.6,0,1.6H9.4a1.58,1.58,0,0,1-1.6-1.6V55.2a6.45,6.45,0,0,1,.3-2L9,50.7a5.24,5.24,0,0,0,.3-2.5L8.1,32.3A3.86,3.86,0,0,0,7,30.1,15.73,15.73,0,0,1,1.4,18.3,16.19,16.19,0,0,1,6,7.6a1.73,1.73,0,0,1,2.4.2,1.57,1.57,0,0,1,0,2.2c-1,1-4.3,4.5-3.7,7.9,2,10.1,14.7,11.9,23,11.5,2-.1,8.2-.2,10.2-.5.3,0-.5-6.2-.5-8.5,0-.2-.6-5.1,1.5-8.9h0s1.8-7.9,3.4-9.4S45.4,7,45.4,7ZM55.2,13a1.7,1.7,0,0,0,0,3.4,1.63,1.63,0,0,0,1.7-1.7A1.63,1.63,0,0,0,55.2,13Z" transform="translate(-1.4 -1.8)"/></svg>