<?xml version="1.0" encoding="utf-8"?>
<!-- Generator: Adobe Illustrator 20.1.0, SVG Export Plug-In . SVG Version: 6.00 Build 0)  -->
<svg version="1.1" id="Layer_1" xmlns="http://www.w3.org/2000/svg" xmlns:xlink="http://www.w3.org/1999/xlink" x="0px" y="0px"
	 viewBox="0 0 64 64" style="enable-background:new 0 0 64 64;" xml:space="preserve">
<style type="text/css">
	.st0{clip-path:url(#SVGID_2_);}
</style>
<path d="M52.7,28H47V15c0-8.3-6.7-15-15-15S17,6.7,17,15v13h-5.7C8.9,28,7,29.9,7,32.3v27.5c0,2.4,1.9,4.3,4.3,4.3h41.5
	c2.4,0,4.3-1.9,4.3-4.3V32.3C57,29.9,55.1,28,52.7,28z M27,28V15c0-2.8,2.2-5,5-5s5,2.2,5,5v13H27z"/>
<g>
	<defs>
		<path id="SVGID_1_" d="M13.1,205.5H0.9v-2.9c0-4.1,2.5-6.4,6.8-6.1c3.7,0.3,5.5,2.6,5.5,6.3L13.1,205.5z"/>
	</defs>
	<clipPath id="SVGID_2_">
		<use xlink:href="#SVGID_1_"  style="overflow:visible;"/>
	</clipPath>
	<path class="st0" d="M16.6,205.5v-2.9c0-5.3-4.3-9.6-9.6-9.6s-9.6,4.3-9.6,9.6v2.9h-1.3c-0.7,0-1.3,0.5-1.3,1.2c0,0,0,0,0,0v16.9
		c0,0.7,0.5,1.3,1.2,1.3c0,0,0,0,0.1,0h21.8c0.7,0,1.3-0.5,1.3-1.2c0,0,0,0,0,0v-16.9c0-0.7-0.5-1.3-1.2-1.3c0,0,0,0,0,0H16.6z"/>
</g>
</svg>
