<?xml version="1.0" encoding="utf-8"?>
<!-- Generator: Adobe Illustrator 18.0.0, SVG Export Plug-In . SVG Version: 6.00 Build 0)  -->
<!DOCTYPE svg PUBLIC "-//W3C//DTD SVG 1.1//EN" "http://www.w3.org/Graphics/SVG/1.1/DTD/svg11.dtd">
<svg version="1.1" id="Layer_1" xmlns="http://www.w3.org/2000/svg" xmlns:xlink="http://www.w3.org/1999/xlink" x="0px" y="0px"
	 viewBox="0 0 64 64" enable-background="new 0 0 64 64" xml:space="preserve">
<path d="M58,64c0-11-7-20-16.7-23.6l0,0c-0.1-0.1-0.3-0.1-0.4-0.2c2.2-2.3,3.9-5.6,4.6-10.5c1,0.1,2.3-0.8,2.7-2.7
	c0.5-1.9,1.4-4.8,0.3-5.2c-0.3-0.1-0.6,0-0.6,0.1v-5c0-5.5-0.9-10.9-6.7-13.2c-1-2.3-1.3-3.9-1.3-3.9c-2.6,2.4-12.8,3.9-12.8,3.9
	h0.1C14.6,4.9,16,9.1,16,17v5.1c0-0.1-0.4-0.3-0.7-0.1c-1,0.3-0.5,3.2-0.2,5.1c0.4,1.7,2,3,3.1,2.8c0.8,5,2.2,8.4,4.3,10.5
	C12.9,44,6,53,6,64H58z"/>
</svg>
