<?xml version="1.0" encoding="utf-8"?>
<!-- Generator: Adobe Illustrator 17.1.0, SVG Export Plug-In . SVG Version: 6.00 Build 0)  -->
<!DOCTYPE svg PUBLIC "-//W3C//DTD SVG 1.1//EN" "http://www.w3.org/Graphics/SVG/1.1/DTD/svg11.dtd">
<svg version="1.1" id="Capa_1" xmlns="http://www.w3.org/2000/svg" xmlns:xlink="http://www.w3.org/1999/xlink" x="0px" y="0px"
	 viewBox="97 62 22 22" enable-background="new 97 62 22 22" xml:space="preserve">
<g>
	<path d="M118.2,74.2c0.5-0.6,0.8-1.3,0.8-2.1c0-0.7-0.3-1.4-0.8-1.9c-0.5-0.5-1.1-0.8-1.9-0.8h-3.8c0-0.1,0.1-0.2,0.1-0.3
		s0.1-0.2,0.2-0.3c0.1-0.1,0.1-0.2,0.1-0.3c0.2-0.3,0.3-0.6,0.4-0.8c0.1-0.2,0.2-0.5,0.3-0.9c0.1-0.4,0.1-0.7,0.1-1.1
		c0-0.2,0-0.4,0-0.6c0-0.1,0-0.4-0.1-0.6c0-0.3-0.1-0.5-0.2-0.7c-0.1-0.2-0.2-0.4-0.3-0.6c-0.2-0.2-0.3-0.4-0.6-0.6
		c-0.2-0.1-0.5-0.3-0.8-0.4s-0.7-0.2-1.1-0.2c-0.2,0-0.4,0.1-0.6,0.3c-0.2,0.2-0.3,0.4-0.5,0.7c-0.1,0.3-0.2,0.5-0.3,0.7
		c-0.1,0.2-0.1,0.5-0.2,0.9c-0.1,0.4-0.1,0.7-0.2,0.9c0,0.2-0.1,0.4-0.2,0.7c-0.1,0.3-0.3,0.5-0.4,0.7c-0.3,0.3-0.8,0.9-1.4,1.7
		c-0.4,0.6-0.9,1.2-1.4,1.7c-0.5,0.5-0.8,0.8-1,0.8c-0.2,0-0.4,0.1-0.6,0.3c-0.2,0.2-0.2,0.4-0.2,0.6v9.2c0,0.2,0.1,0.5,0.3,0.6
		c0.2,0.2,0.4,0.3,0.6,0.3c0.3,0,1,0.2,2.2,0.6c0.7,0.2,1.3,0.4,1.7,0.6c0.4,0.1,1,0.3,1.7,0.4c0.7,0.1,1.4,0.2,2,0.2h0.2h1h0.5
		c1.2,0,2.1-0.4,2.7-1.1c0.5-0.7,0.8-1.5,0.7-2.6c0.4-0.4,0.6-0.8,0.7-1.3c0.2-0.6,0.2-1.1,0-1.7c0.4-0.6,0.6-1.2,0.6-2
		C118.4,75,118.4,74.6,118.2,74.2z"/>
	<path d="M101.8,71.2h-4c-0.2,0-0.4,0.1-0.6,0.3c-0.2,0.2-0.3,0.4-0.3,0.6v9.2c0,0.2,0.1,0.5,0.3,0.6c0.2,0.2,0.4,0.3,0.6,0.3h4
		c0.2,0,0.4-0.1,0.6-0.3c0.2-0.2,0.3-0.4,0.3-0.6v-9.2c0-0.2-0.1-0.5-0.3-0.6C102.3,71.3,102.1,71.2,101.8,71.2z M100.3,80.1
		c-0.2,0.2-0.4,0.3-0.6,0.3c-0.2,0-0.5-0.1-0.6-0.3c-0.2-0.2-0.3-0.4-0.3-0.7c0-0.2,0.1-0.5,0.3-0.6c0.2-0.2,0.4-0.3,0.6-0.3
		c0.2,0,0.4,0.1,0.6,0.3c0.2,0.2,0.3,0.4,0.3,0.6C100.5,79.7,100.4,79.9,100.3,80.1z"/>
</g>
</svg>
