<?xml version="1.0" encoding="utf-8"?>
<!-- Generator: Adobe Illustrator 18.0.0, SVG Export Plug-In . SVG Version: 6.00 Build 0)  -->
<!DOCTYPE svg PUBLIC "-//W3C//DTD SVG 1.1//EN" "http://www.w3.org/Graphics/SVG/1.1/DTD/svg11.dtd">
<svg version="1.1" id="Layer_1" xmlns="http://www.w3.org/2000/svg" xmlns:xlink="http://www.w3.org/1999/xlink" x="0px" y="0px"
	 viewBox="0 0 64 64" enable-background="new 0 0 64 64" xml:space="preserve">
<path d="M62.2,53.8L44.7,36.2C46.8,32.6,48,28.5,48,24C48,10.7,37.3,0,24,0S0,10.7,0,24s10.7,24,24,24c4.5,0,8.6-1.2,12.2-3.3
	l17.6,17.6c1.2,1.2,2.7,1.8,4.2,1.8s3.1-0.6,4.2-1.8C64.6,59.9,64.6,56.1,62.2,53.8z M8,24c0-8.8,7.2-16,16-16s16,7.2,16,16
	c0,8.8-7.2,16-16,16S8,32.8,8,24z"/>
</svg>
