<?xml version="1.0" encoding="utf-8"?>
<!-- Generator: Adobe Illustrator 22.0.1, SVG Export Plug-In . SVG Version: 6.00 Build 0)  -->
<svg version="1.1" id="Layer_1" xmlns="http://www.w3.org/2000/svg" xmlns:xlink="http://www.w3.org/1999/xlink" x="0px" y="0px"
	 viewBox="0 0 60 60" style="enable-background:new 0 0 60 60;" xml:space="preserve">
<g>
	<path d="M14,58.8c-0.6,0-1.3-0.1-1.9-0.3h0C10.4,57.9,9,56.8,8,55.4c-8.2-11.8-8.5-25.4-0.8-35.5c6.8-8.9,18-13.1,30-11.2l1.1-4.5
		c0.4-1.1,1.2-2,2.3-2.6c1.1-0.6,2.4-0.7,3.5-0.3c1.2,0.4,2.1,1.2,2.7,2.3l11.2,24.1c0.5,1.1,0.6,2.4,0.1,3.5
		c-0.4,1.2-1.3,2.1-2.4,2.6L31.8,45c-1.2,0.5-2.4,0.5-3.5,0.1c-2.4-0.9-3.6-3.6-2.8-6l0.9-2.2c-3,0.7-5.6,2.3-7.2,4
		c-2.8,3.1-1.3,7.2-0.2,9.4c0.6,1.2,0.8,2.4,0.6,3.6c-0.3,1.7-1.3,3.2-2.7,4C16,58.6,15,58.8,14,58.8z M31.7,14.4
		c-8,0-15.1,3.3-19.7,9.2C6.4,31.1,6.4,41,11.9,50.2c0.1,0.2,0.5,0.1,0.4-0.2c-1.5-5-0.7-9.7,2.4-13.1c3.3-3.6,9.7-6.9,16.6-6.1
		l2.9,0.3c0.5,0.1,0.9,0.6,0.7,1.1l-2.1,5.3c-0.1,0.2,0.1,0.3,0.3,0.2l18.2-8.5c0.3-0.2,0.5-0.5,0.3-0.9l-8.2-17.7
		c-0.1-0.2-0.3-0.1-0.4,0L42,15c-0.1,0.5-0.6,0.8-1.2,0.7l-2-0.5C36.4,14.6,34,14.4,31.7,14.4z M53.1,28.4
		C53.1,28.4,53.1,28.4,53.1,28.4L53.1,28.4z"/>
</g>
</svg>
