<?xml version="1.0" encoding="utf-8"?>
<!-- Generator: Adobe Illustrator 20.1.0, SVG Export Plug-In . SVG Version: 6.00 Build 0)  -->
<svg version="1.1" id="Layer_1" xmlns="http://www.w3.org/2000/svg" xmlns:xlink="http://www.w3.org/1999/xlink" x="0px" y="0px"
	 viewBox="0 0 64 64" style="enable-background:new 0 0 64 64;" xml:space="preserve">
<title>icon-navigator</title>
<path d="M49.1,23.9h-5.5v-4.8c0-1-0.8-1.7-1.7-1.7h-27c-1,0-1.7,0.8-1.7,1.7v19.2c0,1,0.8,1.7,1.7,1.7h5.5v4.8c0,1,0.8,1.7,1.7,1.7
	h27c1,0,1.7-0.8,1.7-1.7V25.7C50.8,24.7,50,23.9,49.1,23.9z M16.6,20.9h23.5v15.8H16.6V20.9z M47.4,43.1H23.9v-3.1h18
	c1,0,1.7-0.8,1.7-1.7v-11h3.8V43.1z"/>
</svg>
