<svg version="1.1" id="Layer_1" xmlns="http://www.w3.org/2000/svg" xmlns:xlink="http://www.w3.org/1999/xlink" x="0px" y="0px"
	 viewBox="-1 -1 66 66" style="enable-background:new 0 0 64 64;" xml:space="preserve">
<g id="XMLID_7_">
	<path id="XMLID_8_" d="M32,8c13.2,0,24,10.8,24,24S45.2,56,32,56S8,45.2,8,32S18.8,8,32,8 M32,0C14.3,0,0,14.3,0,32s14.3,32,32,32
		s32-14.3,32-32S49.7,0,32,0L32,0z"/>
</g>
<g id="XMLID_9_">
	<circle id="XMLID_10_" cx="24" cy="25" r="6"/>
</g>
<g id="XMLID_11_">
	<circle id="XMLID_12_" cx="40" cy="25" r="6"/>
</g>
<g id="XMLID_126_">
	<path id="XMLID_283_" d="M43,46H21c-2.2,0-4-1.8-4-4s1.8-4,4-4h22c2.2,0,4,1.8,4,4S45.2,46,43,46z"/>
</g>
</svg>
