<svg id="Layer_1" data-name="Layer 1" xmlns="http://www.w3.org/2000/svg" viewBox="0 0 64 64"><title>icon-speaker-notes-on</title><path d="M42.66,19.56H21.34a1.79,1.79,0,0,0-1.79,1.79V42.66a1.79,1.79,0,0,0,1.79,1.79H42.66a1.79,1.79,0,0,0,1.79-1.79V21.34A1.79,1.79,0,0,0,42.66,19.56Zm-1.82,20.9H23.33a1.78,1.78,0,0,1,0-3.56H40.84a1.78,1.78,0,0,1,0,3.56Zm0-6.52H23.33a1.78,1.78,0,0,1,0-3.56H40.84a1.78,1.78,0,0,1,0,3.56Zm-.44-6.52H23.77a2,2,0,0,1-2.22-1.78,2,2,0,0,1,2.22-1.78H40.4a2,2,0,0,1,2.22,1.78A2,2,0,0,1,40.4,27.42Z" transform="translate(0 -0.03)"/><path d="M32,0A32,32,0,1,0,64,32,32,32,0,0,0,32,0ZM48,42.66A5.35,5.35,0,0,1,42.66,48H21.34A5.35,5.35,0,0,1,16,42.66V21.34A5.35,5.35,0,0,1,21.34,16H42.66A5.35,5.35,0,0,1,48,21.34Z" transform="translate(0 -0.03)"/></svg>