<svg xmlns="http://www.w3.org/2000/svg" viewBox="0 0 296.66858 450">
    <title>logo-mark</title>
    <path d="M142.60537,17.41084a36.73124,36.73124,0,0,1,36.4821,32.87833,60.23723,60.23723,0,0,1,41.23723-16.299,9.63523,9.63523,0,1,1,0,19.27046,41.23434,41.23434,0,0,0-41.03912,37.95447v3.24938a9.57023,9.57023,0,0,1-.16466,1.63266v10.15536h2.92052c14.05349,0,31.00744,15.04567,37.96161,31.08145l.50455,1.16285.00014,0c.17143,0,30.64985,70.68889,30.64985,70.68889a136.811,136.811,0,0,1,41.46258,97.847c0,75.15086-61.13941,136.29016-136.29111,136.29016-75.15,0-136.2894-61.1393-136.2894-136.29016a136.817,136.817,0,0,1,41.46142-97.847l31.1557-71.85172a52.76543,52.76543,0,0,1,48.43493-31.78947A10.72324,10.72324,0,0,1,151.809,116.27673h8.08084c-.00526-.132-.0394-.25611-.0394-.38944V94.46446c0-1.4242.06711-2.83241.16466-4.23235V74.01886c-2.02357.80092-4.186,1.62939-6.40244,2.45938a9.60734,9.60734,0,0,1-4.877,11.5972c-11.6079,5.71342-22.55346,8.57278-32.74977,8.57278A49.72938,49.72938,0,0,1,93.53066,91.4205C64.25806,76.83587,56.30237,36.86713,55.97778,35.17339a9.63264,9.63264,0,0,1,14.8762-9.781,32.202,32.202,0,0,0,18.44383,5.35674c10.34466,0,20.38527-3.90346,26.82953-7.06923a60.436,60.436,0,0,1,26.478-6.269" transform="translate(-7.99563 -5.3668)" style="fill:#fff"/>
    <path d="M142.60537,5.3668a72.54665,72.54665,0,0,0-31.78987,7.50362c-7.65847,3.76229-15.30076,5.83464-21.51771,5.83464a20.11133,20.11133,0,0,1-11.67748-3.27641A21.67909,21.67909,0,0,0,44.148,37.43465c.92987,4.85255,10.05633,47.84822,44.01166,64.766a61.51984,61.51984,0,0,0,13.2942,4.81868,64.74933,64.74933,0,0,0-19.8471,25.52343L51.38007,202.25187A149.19156,149.19156,0,0,0,7.99563,307.03261c0,81.79177,66.54209,148.33419,148.33343,148.33419,81.79224,0,148.33515-66.54242,148.33515-148.33419A149.19,149.19,0,0,0,261.28744,202.2607c-2.25782-5.2349-8.28987-19.217-14.33552-33.19934-3.82408-8.84436-7.65356-17.68864-10.53769-24.3219-1.44879-3.33216-2.66018-6.10891-3.51478-8.05265-.41295-.93923-.8592-1.95418-1.38568-2.96714l.04216-.0183-.50473-1.16285a72.36768,72.36768,0,0,0-19.62026-25.98106,54.08484,54.08484,0,0,0-20.13076-11.04677c.01856-.334.02944-.68367.02944-1.04623V91.72883A29.27645,29.27645,0,0,1,220.3247,65.30464a21.67927,21.67927,0,1,0,0-43.35853,72.14069,72.14069,0,0,0-34.836,8.93279A48.6011,48.6011,0,0,0,142.60537,5.3668Z" transform="translate(-7.99563 -5.3668)" style="fill:#fff"/>
    <path d="M150.40113,27.04605c-22.876,2.39195-51.28746,27.08435-84.96059,6.31574,0,0,5.61928,59.32662,62.75379,52.099,0,0,32.40179-10.84082,41.456-15.65842C169.65037,69.80238,173.27709,24.6541,150.40113,27.04605Z" transform="translate(-7.99563 -5.3668)" style="fill:#7c903a"/>
    <path d="M242.17639,215.44986l-32.02092-73.84633a42.05882,42.05882,0,0,0-38.58724-25.32683H141.09065a42.05888,42.05888,0,0,0-38.58732,25.32683l-32.0208,73.84641a125.55818,125.55818,0,1,0,171.69386-.00008Z" transform="translate(-7.99563 -5.3668)" style="fill:#c8db58"/>
    <path d="M193.83321,407.14292a8.50916,8.50916,0,0,0-10.76908-5.35863,91.41088,91.41088,0,0,1-29.13036,4.80582c-45.70028,0-85.86081-33.92558-93.41891-78.91431-2.33235-13.88123-4.03662-26.311-1.25848-37.87284l.13053-.65865c.02351-.14819,2.40413-14.89274,7.41815-24.92083A8.5044,8.5044,0,1,0,51.5924,256.616c-5.79736,11.59005-8.52374,26.965-8.95069,29.52909-3.418,14.55868-1.43257,29.28675,1.09856,44.34887C52.65685,383.57473,100.02965,423.6,153.93377,423.6a108.39476,108.39476,0,0,0,34.54076-5.688A8.50731,8.50731,0,0,0,193.83321,407.14292Z" transform="translate(-7.99563 -5.3668)" style="fill:#f4e78d"/>
    <ellipse cx="153.96059" cy="273.5396" rx="15.06066" ry="15.07459" style="fill:#364443"/>
    <ellipse cx="191.7282" cy="273.5396" rx="15.06066" ry="15.07459" style="fill:#364443"/>
    <path d="M206.9581,323.2262a11.8888,11.8888,0,0,0-16.82193-.31648,15.21217,15.21217,0,0,1-21.14214.00086,11.90268,11.90268,0,0,0-16.50744,17.15225,38.99154,38.99154,0,0,0,54.15532.00085A11.91608,11.91608,0,0,0,206.9581,323.2262Z" transform="translate(-7.99563 -5.3668)" style="fill:#364443"/>
    <path d="M251.15748,209.18569s-30.49691-70.73108-30.65-70.68889l-.50428-1.1628c-6.95443-16.03583-23.90827-31.08146-37.96151-31.08146h-2.92015v-10.155a9.60654,9.60654,0,0,0,.16467-1.63268V91.21542a41.23333,41.23333,0,0,1,41.03911-37.9543,9.63523,9.63523,0,1,0,0-19.27046,60.238,60.238,0,0,0-41.23774,16.29871,36.7309,36.7309,0,0,0-36.48276-32.87808A60.43983,60.43983,0,0,0,116.128,23.67913c-10.3574,5.08931-30.0113,12.0805-45.27335,1.71134a9.63547,9.63547,0,0,0-14.87744,9.78225c.32462,1.69487,8.28027,41.66366,37.55175,56.24589,15.96423,7.95447,34.5384,6.82887,55.20615-3.34387A9.635,9.635,0,1,0,140.22663,70.785c-14.9633,7.36168-27.7648,8.50963-38.04928,3.41326C91.934,69.12067,85.16985,58.71975,80.93915,49.45855c17.111,2.52525,33.67861-3.56734,43.68669-8.48376a41.06577,41.06577,0,0,1,17.979-4.293A17.43025,17.43025,0,0,1,160.01578,54.0915V90.23244c-.09732,1.39994-.16466,2.80812-.16466,4.23246v21.42287a9.59256,9.59256,0,0,0,3.9077,7.70865,10.64643,10.64643,0,0,0,7.79731,3.41311,31.30915,31.30915,0,0,1,28.75264,18.864l32.02005,73.84633a10.75012,10.75012,0,0,0,2.50584,3.55955,113.712,113.712,0,0,1,36.32031,83.5952c.07953,60.106-46.95146,110.67945-106.92171,114.71682A114.94863,114.94863,0,0,1,41.50463,307.03261a113.72531,113.72531,0,0,1,36.319-83.754,10.74866,10.74866,0,0,0,2.50569-3.55881L112.351,145.87348a31.30912,31.30912,0,0,1,28.292-18.86086c5.39938-.0766,10.26022-3.74156,11.05722-9.08243a10.73843,10.73843,0,0,0-10.60881-12.38571A52.76593,52.76593,0,0,0,92.6565,137.334L61.50064,209.18569a136.81789,136.81789,0,0,0-41.46107,97.84692c0,75.15086,61.13952,136.29023,136.28949,136.29023,75.15159,0,136.291-61.13937,136.291-136.29023A136.81058,136.81058,0,0,0,251.15748,209.18569Z" transform="translate(-7.99563 -5.3668)" style="fill:#364443"/>
</svg>