<svg xmlns="http://www.w3.org/2000/svg" viewBox="0 0 38.39959 60"><title>icon-pear</title><path d="M45.35878,29.01609S41.06249,19.0518,41.041,19.05778l-.071-.16373c-.97961-2.259-3.368-4.3786-5.34779-4.3786h-.41136V13.08483a1.35805,1.35805,0,0,0,.02325-.23007v-.45771a5.8088,5.8088,0,0,1,5.73436-5.34661A1.3927,1.3927,0,0,0,42.36822,5.805a1.35764,1.35764,0,0,0-1.35295-1.46952,8.4862,8.4862,0,0,0-5.80935,2.29614A5.17426,5.17426,0,0,0,30.06652,2a8.51543,8.51543,0,0,0-3.72989.8829c-1.45915.717-4.22783,1.70192-6.37789.24106a1.35741,1.35741,0,0,0-2.09588,1.37813c.0458.23877,1.16647,5.86926,5.29,7.92362.01362.00679.03465.01669.06129.02892a6.55281,6.55281,0,0,0,1.68467.50991,9.73837,9.73837,0,0,0,1.72651.16288,13.87959,13.87959,0,0,0,5.89278-.84883c-.013.19068-.02213.3824-.02213.57617v1.36475c-.34932-.01229-.69679-.01514-1.03983-.00849a14.59581,14.59581,0,0,0-2.52763.26318,7.426,7.426,0,0,0-3.02575,1.07791,4.42446,4.42446,0,0,0-.42744.28124,7.118,7.118,0,0,0-2.29818,2.88574l-4.53624,10.297a19.19994,19.19994,0,1,0,26.71784,0Z" transform="translate(-12.8002 -2)"/></svg>