<?xml version="1.0" encoding="utf-8"?>
<!-- Generator: Adobe Illustrator 20.1.0, SVG Export Plug-In . SVG Version: 6.00 Build 0)  -->
<svg version="1.1" id="Layer_1" xmlns="http://www.w3.org/2000/svg" xmlns:xlink="http://www.w3.org/1999/xlink" x="0px" y="0px"
	 viewBox="0 0 68 68" style="enable-background:new 0 0 68 68;" xml:space="preserve">
<path class="locked-spinner" d="M53.1,27v-5.8c0-10.5-8.6-19.1-19.1-19.1s-19.1,8.6-19.1,19.1V27h-2.5c-1.4,0-2.5,1.1-2.5,2.4v0.1v33.6
	c-0.1,1.4,1,2.5,2.4,2.6h0.1h43.2c1.4,0,2.5-1.1,2.5-2.4v-0.1V29.5c0-1.4-1.1-2.5-2.4-2.5h-0.1H53.1z M46.1,27H21.9v-5.8
	c0-8.1,5-12.8,13.4-12.1c7.3,0.7,10.8,5.1,10.8,12.5V27z"/>
<path class="locked-spinner-outline" d="M53.1,27.1v-5.8c0-10.5-8.6-19.1-19.1-19.1s-19.1,8.6-19.1,19.1v5.8h-2.5c-1.4,0-2.5,1.1-2.5,2.4v0.1v33.6
	c-0.1,1.4,1,2.5,2.4,2.6h0.1h43.2c1.4,0,2.5-1.1,2.5-2.4v-0.1V29.6c0-1.4-1.1-2.5-2.4-2.5h-0.1H53.1z M46.1,27.1H21.9v-5.8
	c0-8.1,5-12.8,13.4-12.1c7.3,0.7,10.8,5.1,10.8,12.5V27.1z"/>
</svg>
