<?xml version="1.0" encoding="utf-8"?>
<!-- Generator: Adobe Illustrator 20.1.0, SVG Export Plug-In . SVG Version: 6.00 Build 0)  -->
<svg version="1.1" id="Layer_1" xmlns="http://www.w3.org/2000/svg" xmlns:xlink="http://www.w3.org/1999/xlink" x="0px" y="0px"
	 viewBox="0 0 64 64" style="enable-background:new 0 0 64 64;" xml:space="preserve">
<title>icon-navigator</title>
<g>
	<rect x="16.6" y="20.9" width="23.5" height="15.8"/>
	<path d="M43.6,38.3c0,1-0.8,1.7-1.7,1.7h-18v3.1h23.5V27.4h-3.8V38.3z"/>
	<path d="M32,0C14.3,0,0,14.3,0,32s14.3,32,32,32s32-14.3,32-32S49.7,0,32,0z M50.8,44.9c0,1-0.8,1.7-1.7,1.7h-27
		c-1,0-1.7-0.8-1.7-1.7v-4.8h-5.5c-1,0-1.7-0.8-1.7-1.7V19.1c0-1,0.8-1.7,1.7-1.7h27c1,0,1.7,0.8,1.7,1.7v4.8h5.5
		c1,0,1.7,0.8,1.7,1.7V44.9z"/>
</g>
</svg>
