<svg id="Layer_1" data-name="Layer 1" xmlns="http://www.w3.org/2000/svg" viewBox="0 0 64 64"><title>icon-projector-circular</title><path d="M32,0A32,32,0,1,0,64,32,32,32,0,0,0,32,0ZM46,22h-.5v17.5A2.48,2.48,0,0,1,43,42H37.4l2.9,2.5A2,2,0,0,1,39,48a2.22,2.22,0,0,1-1.3-.5L32,42.65,26.3,47.5A1.94,1.94,0,0,1,25,48a2,2,0,0,1-1.5-.7,1.94,1.94,0,0,1,.13-2.74l.07-.06L26.6,42H21a2.48,2.48,0,0,1-2.5-2.46s0,0,0,0V22H18a2,2,0,0,1,0-4h8.75a2,2,0,0,1,2-2h6.5a2,2,0,0,1,2,2H46a2,2,0,0,1,0,4Z" transform="translate(0 0.03)"/><rect x="22.5" y="22.03" width="19" height="16"/></svg>