<?xml version="1.0" encoding="utf-8"?>
<!-- Generator: Adobe Illustrator 22.0.1, SVG Export Plug-In . SVG Version: 6.00 Build 0)  -->
<svg version="1.1" id="Layer_1" xmlns="http://www.w3.org/2000/svg" xmlns:xlink="http://www.w3.org/1999/xlink" x="0px" y="0px"
	 viewBox="0 0 57.7 54.6" style="enable-background:new 0 0 57.7 54.6;" xml:space="preserve">
<g>
	<path d="M40,53.6l-22.5,0c-3.8-0.3-6.8-3.4-7-7.2l0-0.2c0-4,3.9-7.2,7.3-7.2H21V16l-4.9,0l0,0.1c-0.2,3.8-3.2,6.8-7,7
		c-4,0.2-7.4-2.9-7.6-7l0-0.1V8.3c0-3.8,3.1-6.8,6.8-6.8h41.1c3.8,0,6.8,3.1,6.8,6.8l0,7.9c-0.2,3.8-3.2,6.8-7,7
		c-1.9,0.1-3.8-0.6-5.2-1.9c-1.4-1.3-2.3-3.1-2.4-5.1l0-0.2h-4.9v23l3.5,0c3.7,0.4,6.7,3.3,6.9,7.1l0,0.2
		C47.2,50.5,43.3,53.6,40,53.6z M17.9,47.6H40c0.4-0.1,1.1-0.7,1.2-1.1c-0.1-0.7-0.7-1.3-1.4-1.4h-9V10h16.9V16
		c0,0.4,0.3,0.7,0.4,0.8c0.1,0.1,0.5,0.4,0.9,0.3c0.7,0,1.2-0.5,1.2-1.2V8.3c0-0.4-0.4-0.8-0.8-0.8H8.3c0,0,0,0,0,0
		c-0.5,0-0.8,0.4-0.8,0.8V16c0,0.4,0.3,0.7,0.4,0.8C8,17,8.4,17.2,8.8,17.2c0.7,0,1.2-0.5,1.2-1.2V10H27v35h-9.2
		c-0.4,0-1.2,0.7-1.3,1.1C16.6,46.9,17.2,47.5,17.9,47.6z"/>
</g>
</svg>
