<svg xmlns="http://www.w3.org/2000/svg" viewBox="0 0 58.05 58.05"><path d="M50.09,33.23a4.08,4.08,0,0,0-3,1.23,4.14,4.14,0,0,0-1.24,2.95V50.1c0,.38,0,.74,0,1.08,0,.14-.07.28-.11.42l-.21.37-.32.32a3.64,3.64,0,0,1-.39.23l-.43.11c-.29,0-.61,0-.94,0H13.81c-.35,0-.68,0-1,0a3.17,3.17,0,0,1-.41-.12A2.71,2.71,0,0,1,12,52.3c-.11-.1-.22-.2-.32-.31s-.16-.26-.23-.39-.08-.29-.11-.43c0-.3,0-.62,0-1V20.58c0-.35,0-.68,0-1a3.31,3.31,0,0,1,.12-.42,3.47,3.47,0,0,1,.21-.37l.31-.31a4,4,0,0,1,.39-.23,3.9,3.9,0,0,1,.46-.12c.54,0,1.1,0,1.69,0l.9,0h11a4.19,4.19,0,0,0,3-7.15,4.12,4.12,0,0,0-2.94-1.24h-13A14.36,14.36,0,0,0,11,10a9.89,9.89,0,0,0-5.31,3A10.39,10.39,0,0,0,3,20.07V50.7a13.76,13.76,0,0,0,.16,2,9.34,9.34,0,0,0,1,3,9.9,9.9,0,0,0,1.8,2.46A10.18,10.18,0,0,0,13.26,61H43.89A9.75,9.75,0,0,0,45,61a12.76,12.76,0,0,0,1.82-.3A11.7,11.7,0,0,0,48.58,60a9.53,9.53,0,0,0,2.51-1.73A9.85,9.85,0,0,0,54,53a12.79,12.79,0,0,0,.22-2.46V37.44A4.22,4.22,0,0,0,50.09,33.23Z" transform="translate(-2.98 -2.98)"/><path d="M61,7a4.23,4.23,0,0,0-1.24-2.81,4.06,4.06,0,0,0-1.24-.84A3.92,3.92,0,0,0,56.86,3a2,2,0,0,0-.42,0l-21,0h0a4.18,4.18,0,0,0-3,7.14,4.12,4.12,0,0,0,2.94,1.24H46.69L23.58,34.46a4.15,4.15,0,0,0-1.21,3,4.27,4.27,0,0,0,1.24,3,4.21,4.21,0,0,0,5.92,0l23.1-23.08V28.56a4.21,4.21,0,0,0,4.16,4.21h0a4.23,4.23,0,0,0,2.95-1.23A4.12,4.12,0,0,0,61,28.6L61,7.19Zm-1.5.11Z" transform="translate(-2.98 -2.98)"/></svg>