<?xml version="1.0" encoding="utf-8"?>
<!-- Generator: Adobe Illustrator 20.0.0, SVG Export Plug-In . SVG Version: 6.00 Build 0)  -->
<svg version="1.1" id="Layer_1" xmlns="http://www.w3.org/2000/svg" xmlns:xlink="http://www.w3.org/1999/xlink" x="0px" y="0px"
	 viewBox="0 0 64 64" style="enable-background:new 0 0 64 64;" xml:space="preserve">
<path d="M58.2,18.4L58.2,18.4c-0.4-1-1-1.9-1.8-2.6l-8.2-8.2c-0.8-0.8-1.7-1.4-2.6-1.8c-1-0.4-2-0.6-3-0.6c-1,0-2.1,0.2-3,0.6
	c-1,0.4-1.9,1-2.7,1.8c0,0,0,0,0,0c0,0-0.2,0.2-0.5,0.5c-0.3,0.3-0.7,0.7-1.1,1.1L10.4,34c-0.2,0.2-0.4,0.5-0.4,0.8
	c0,0.1,0,0.1-0.1,0.2v0c-0.4,1.7-4.7,21.8-4.7,21.8c0,0.1,0,0.2,0,0.3c0,0.4,0.2,0.8,0.5,1.1c0.3,0.3,0.7,0.5,1.1,0.5
	c0.1,0,0.2,0,0.3,0c0,0,17.4-3.7,21.9-4.7c0.4-0.1,0.7-0.3,1-0.6L55.4,28l0,0c0.2-0.2,0.3-0.3,0.5-0.5c0.3-0.3,0.5-0.5,0.5-0.5
	c0.8-0.8,1.4-1.7,1.8-2.7c0.4-1,0.6-2,0.6-3C58.7,20.4,58.5,19.4,58.2,18.4 M37.5,21.6l5.3,5.3 M24.2,45.5l-5.3-5.3 M49.7,29.2
	L34.8,14.3l2.3-2.3L52,26.9L49.7,29.2z M35.2,19.3l-2.7-2.7L13.9,35.2l2.7,2.7l9.9,9.9l2.3,2.3l18.6-18.6l-2.3-2.3L35.2,19.3z
	 M10.6,47.2c0.7-3.2,1.4-6.6,1.9-8.8l13.1,13.1c-2.7,0.6-6.4,1.4-9.8,2.1"/>
<polygon points="36.8,7.6 36.8,7.6 36.8,7.6 "/>
<path d="M36.8,7.7C36.8,7.7,36.8,7.8,36.8,7.7C36.8,7.7,36.8,7.7,36.8,7.7"/>
</svg>
