<svg viewBox="0 0 32 32" version="1.1" xmlns="http://www.w3.org/2000/svg" xmlns:xlink="http://www.w3.org/1999/xlink">
  <path d="M15.7921818,13.8529959 C15.7851406,15.5578768 15.7921818,17.2622084 15.799223,18.96654 C18.6167703,19.0593637 21.4419004,19.016522 24.2594477,19.0593637 C23.0164121,25.3977417 14.5139404,27.4524966 10.0151807,23.3133271 C5.38968014,19.6827657 5.60849773,11.7191485 10.4181517,8.3456375 C13.7794933,5.62463885 18.560441,6.2974736 21.9223241,8.65376835 C23.2428125,7.41465391 24.4788069,6.08985602 25.6720127,4.71507612 C22.8755889,2.4516051 19.4432941,0.840646472 15.7921818,1.01256262 C8.17202165,0.754413773 1.16660894,7.52230747 1.03932643,15.2491967 C0.5518615,21.5656045 4.64819182,27.7611767 10.4322341,29.9949881 C16.1951528,32.2441785 23.5813298,30.7117631 27.2611484,25.4620043 C29.6908903,22.1461648 30.2130194,17.8779208 29.9308314,13.8672765 C25.2132541,13.831575 20.5027179,13.8387153 15.7921818,13.8529959" id="Fill-1"></path>
</svg>