<?xml version="1.0" encoding="utf-8"?>
<!-- Generator: Adobe Illustrator 19.0.0, SVG Export Plug-In . SVG Version: 6.00 Build 0)  -->
<!DOCTYPE svg PUBLIC "-//W3C//DTD SVG 1.1//EN" "http://www.w3.org/Graphics/SVG/1.1/DTD/svg11.dtd">
<svg version="1.1" id="Capa_1" xmlns="http://www.w3.org/2000/svg" xmlns:xlink="http://www.w3.org/1999/xlink" x="0px" y="0px"
	 viewBox="-20 22 22 22" style="enable-background:new -20 22 22 22;" xml:space="preserve">
<g>
	<path d="M-19.2,31.7c-0.5,0.6-0.8,1.3-0.8,2.1c0,0.7,0.3,1.4,0.8,1.9s1.1,0.8,1.9,0.8h3.8c0,0.1-0.1,0.2-0.1,0.3s-0.1,0.2-0.2,0.3
		c-0.1,0.1-0.1,0.2-0.1,0.3c-0.2,0.3-0.3,0.6-0.4,0.8c-0.1,0.2-0.2,0.5-0.3,0.9c-0.1,0.4-0.1,0.7-0.1,1.1c0,0.2,0,0.4,0,0.6
		c0,0.1,0,0.4,0.1,0.6c0,0.3,0.1,0.5,0.2,0.7s0.2,0.4,0.3,0.6c0.2,0.2,0.3,0.4,0.6,0.6c0.2,0.1,0.5,0.3,0.8,0.4s0.7,0.2,1.1,0.2
		c0.2,0,0.4-0.1,0.6-0.3s0.3-0.4,0.5-0.7c0.1-0.3,0.2-0.5,0.3-0.7c0.1-0.2,0.1-0.5,0.2-0.9s0.1-0.7,0.2-0.9c0-0.2,0.1-0.4,0.2-0.7
		c0.1-0.3,0.3-0.5,0.4-0.7c0.3-0.3,0.8-0.9,1.4-1.7c0.4-0.6,0.9-1.2,1.4-1.7s0.8-0.8,1-0.8s0.4-0.1,0.6-0.3c0.2-0.2,0.2-0.4,0.2-0.6
		v-9.2c0-0.2-0.1-0.5-0.3-0.6c-0.2-0.2-0.4-0.3-0.6-0.3c-0.3,0-1-0.2-2.2-0.6C-8.4,23-9,22.8-9.4,22.6c-0.4-0.1-1-0.3-1.7-0.4
		s-1.4-0.2-2-0.2h-0.2h-1h-0.5c-1.2,0-2.1,0.4-2.7,1.1c-0.5,0.7-0.8,1.5-0.7,2.6c-0.4,0.4-0.6,0.8-0.7,1.3c-0.2,0.6-0.2,1.1,0,1.7
		c-0.4,0.6-0.6,1.2-0.6,2C-19.4,30.9-19.4,31.3-19.2,31.7z"/>
	<path d="M-2.8,34.7h4c0.2,0,0.4-0.1,0.6-0.3C2,34.2,2.1,34,2.1,33.8v-9.2c0-0.2-0.1-0.5-0.3-0.6c-0.2-0.2-0.4-0.3-0.6-0.3h-4
		c-0.2,0-0.4,0.1-0.6,0.3c-0.2,0.2-0.3,0.4-0.3,0.6v9.2c0,0.2,0.1,0.5,0.3,0.6C-3.3,34.6-3.1,34.7-2.8,34.7z M-1.3,25.8
		c0.2-0.2,0.4-0.3,0.6-0.3s0.5,0.1,0.6,0.3c0.2,0.2,0.3,0.4,0.3,0.7c0,0.2-0.1,0.5-0.3,0.6c-0.2,0.2-0.4,0.3-0.6,0.3
		s-0.4-0.1-0.6-0.3c-0.2-0.2-0.3-0.4-0.3-0.6C-1.5,26.2-1.4,26-1.3,25.8z"/>
</g>
</svg>
