<?xml version="1.0" encoding="utf-8"?>
<!-- Generator: Adobe Illustrator 20.0.0, SVG Export Plug-In . SVG Version: 6.00 Build 0)  -->
<svg version="1.1" id="Layer_1" xmlns="http://www.w3.org/2000/svg" xmlns:xlink="http://www.w3.org/1999/xlink" x="0px" y="0px"
	 viewBox="0 0 64 64" style="enable-background:new 0 0 64 64;" xml:space="preserve">
<style type="text/css">
	.st0{fill:none;stroke:#000000;stroke-width:5;stroke-linecap:round;stroke-linejoin:round;stroke-miterlimit:10;}
</style>
<g>
	<path d="M21.3,27.9h20.5l-8.1-7.7c-1.4-1.4-1.4-3.3,0-4.8c0.7-0.7,1.6-0.9,2.5-0.9c0.9,0,1.8,0.4,2.5,1.1l16.7,16.6L38.8,48.9
		c-1.4,1.4-3.6,1.4-5,0c-1.4-1.4-1.4-4,0-5.5l8-8.5H21.3c-1.9,0-3.5-1.6-3.5-3.5S19.4,27.9,21.3,27.9z"/>
</g>
<g>
	<path class="st0" d="M31.6,32.3"/>
</g>
<g>
	<path d="M55.1,62.8h-47c-2.2,0-4-1.8-4-4v-53c0-2.2,1.8-4,4-4h47c2.2,0,4,1.8,4,4v12.1c0,2.2-1.8,4-4,4s-4-1.8-4-4V9.8h-39v45h39
		v-8.1c0-2.2,1.8-4,4-4s4,1.8,4,4v12.1C59.1,61,57.3,62.8,55.1,62.8z"/>
</g>
</svg>
