<?xml version="1.0" encoding="utf-8"?>
<!-- Generator: Adobe Illustrator 17.1.0, SVG Export Plug-In . SVG Version: 6.00 Build 0)  -->
<!DOCTYPE svg PUBLIC "-//W3C//DTD SVG 1.1//EN" "http://www.w3.org/Graphics/SVG/1.1/DTD/svg11.dtd">
<svg version="1.1" id="Layer_1" xmlns="http://www.w3.org/2000/svg" xmlns:xlink="http://www.w3.org/1999/xlink" x="0px" y="0px"
	 viewBox="0 0 64 64" enable-background="new 0 0 64 64" xml:space="preserve">
<path d="M40.6,52L40.6,52H43L31.9,64L21,52h2.4l0,0H40.6z"/>
<path d="M40.6,12L40.6,12H43L31.9,0L21,12h2.4l0,0H40.6z"/>
<path d="M12,40.6L12,40.6V43L0,31.9L12,21v2.4l0,0V40.6z"/>
<path d="M52,40.6L52,40.6V43l12-11.1L52,21v2.4l0,0V40.6z"/>
<path d="M32,20c6.5,0,12,5.5,12,12s-5.5,12-12,12s-12-5.5-12-12S25.5,20,32,20L32,20z"/>
</svg>
