<?xml version="1.0" encoding="utf-8"?>
<!-- Generator: Adobe Illustrator 17.1.0, SVG Export Plug-In . SVG Version: 6.00 Build 0)  -->
<!DOCTYPE svg PUBLIC "-//W3C//DTD SVG 1.1//EN" "http://www.w3.org/Graphics/SVG/1.1/DTD/svg11.dtd">
<svg version="1.1" id="Layer_1" xmlns="http://www.w3.org/2000/svg" xmlns:xlink="http://www.w3.org/1999/xlink" x="0px" y="0px"
	 viewBox="0 0 64 64" enable-background="new 0 0 64 64" xml:space="preserve">
<path d="M43,0H11C8.8,0,7,1.8,7,4v56c0,2.2,1.8,4,4,4h42c2.2,0,4-1.8,4-4V14L43,0z M51,58H13V6h27.5L41,6.5V13c0,2.2,1.8,4,4,4h6V58
	z"/>
<g>
	<path d="M45,26H20c-1.1,0-2-0.9-2-2s0.9-2,2-2h25c1.1,0,2,0.9,2,2S46.1,26,45,26z"/>
</g>
<g>
	<path d="M45,36H20c-1.1,0-2-0.9-2-2s0.9-2,2-2h25c1.1,0,2,0.9,2,2S46.1,36,45,36z"/>
</g>
<g>
	<path d="M45,46H20c-1.1,0-2-0.9-2-2s0.9-2,2-2h25c1.1,0,2,0.9,2,2S46.1,46,45,46z"/>
</g>
</svg>
