<svg xmlns="http://www.w3.org/2000/svg" viewBox="0 0 60.11 29.2"><title>icon-shape-taco</title><path d="M58.4,47.4l-50.5,1C4,48.4,1,43.3,2.1,39.6,5.3,28.4,14.4,20.1,26.7,20.1c2.4,0,10,.3,12.2.9M16.3,34.6a3.75,3.75,0,0,0,1-.1A4.73,4.73,0,0,0,21.1,31h0a4.84,4.84,0,0,0,1.7,0,4.71,4.71,0,0,0-1.5-9.3,4.73,4.73,0,0,0-3.8,3.5h0a4.84,4.84,0,0,0-1.7,0,4.67,4.67,0,0,0-3.9,5.4l.1.2a2.49,2.49,0,0,0-.8.1,4.67,4.67,0,0,0-3.9,5.4,5.73,5.73,0,0,0,.4,1.4l.1-.1A4.6,4.6,0,0,0,4,43a4.73,4.73,0,0,0,5.4,3.9,4.67,4.67,0,0,0,3.9-5.4,5.73,5.73,0,0,0-.4-1.4l-.1.1a4.67,4.67,0,0,0,3.9-5.4" transform="translate(-1.87 -19.2)"/><path d="M5.8,47.4c3.5-1.3,3.1-5.4,3.8-8C13,28.1,23.3,19.2,35.4,19.2c13.2,0,24.2,8.4,26.5,20.7.5,2.6-1.4,7.6-4,7.6H5.8Z" transform="translate(-1.87 -19.2)"/></svg>