<svg xmlns="http://www.w3.org/2000/svg" xmlns:xlink="http://www.w3.org/1999/xlink" version="1.1" id="Layer_1" x="0" y="0" width="24" height="24" enable-background="new 0 0 24 24" xml:space="preserve">
  <path fill="#A8494A" d="M12 0C5.37 0 0 5.37 0 12s5.37 12 12 12c6.63 0 12-5.37 12-12C24 5.37 18.63 0 12 0z"/>
  <path fill="#D95B5D" d="M12 1C5.93 1 1 5.93 1 12s4.93 11 11 11 11-4.92 11-11S18.08 1 12 1zM16.98 14.71c0.63 0.63 0.63 1.64 0 2.27 -0.31 0.31-0.72 0.47-1.13 0.47 -0.41 0-0.82-0.16-1.13-0.47L12 14.27l-2.71 2.71c-0.31 0.31-0.72 0.47-1.13 0.47s-0.82-0.16-1.13-0.47c-0.63-0.63-0.63-1.64 0-2.27L9.73 12 7.02 9.29c-0.63-0.63-0.63-1.64 0-2.27 0.63-0.63 1.64-0.63 2.27 0L12 9.73l2.71-2.71c0.63-0.63 1.64-0.63 2.27 0 0.63 0.63 0.63 1.64 0 2.27L14.27 12 16.98 14.71z"/>
  <path fill="#FFFFFF" d="M16.98 7.02c-0.63-0.63-1.64-0.63-2.27 0L12 9.73 9.29 7.02c-0.63-0.63-1.64-0.63-2.27 0 -0.63 0.63-0.63 1.64 0 2.27L9.73 12l-2.71 2.71c-0.63 0.63-0.63 1.64 0 2.27 0.31 0.31 0.72 0.47 1.14 0.47s0.82-0.16 1.14-0.47L12 14.27l2.71 2.71c0.31 0.31 0.72 0.47 1.14 0.47s0.82-0.16 1.14-0.47c0.63-0.63 0.63-1.64 0-2.27L14.27 12l2.71-2.71C17.61 8.66 17.61 7.65 16.98 7.02z"/>
</svg>
