<?xml version="1.0" encoding="utf-8"?>
<!DOCTYPE svg PUBLIC "-//W3C//DTD SVG 1.1//EN" "http://www.w3.org/Graphics/SVG/1.1/DTD/svg11.dtd">
<svg version="1.1" id="Layer_1" xmlns="http://www.w3.org/2000/svg" xmlns:xlink="http://www.w3.org/1999/xlink" x="0px" y="0px"
	 viewBox="0 0 64 64" enable-background="new 0 0 64 64" xml:space="preserve">
<path d="M60,4H4C1.8,4,0,5.8,0,8v40c0,2.2,1.8,4,4,4h36.6l11.7,11.7c0.2,0.2,0.4,0.3,0.7,0.3c0.1,0,0.3,0,0.4-0.1
	c0.4-0.2,0.6-0.5,0.6-0.9V52h6c2.2,0,4-1.8,4-4V8C64,5.8,62.2,4,60,4z M19,34.8c0,0.9-1.1,1.7-2,1.7c-0.9,0-2-0.8-2-1.7V21.9l-2,2.3
	c-0.3,0.3-0.5,0.4-0.8,0.4c-0.7,0-1.3-0.6-1.3-1.4c0-0.4,0.2-0.7,0.4-1l4.2-4.2c0.3-0.4,1-0.6,1.5-0.6c1,0,2.1,0.8,2.1,1.9V34.8z
	 M34.4,36H23.5c-0.8,0-1.5-0.5-1.5-1.5c0-0.5,0.2-1,0.7-1.3c6.8-5.1,9.6-7.6,9.6-10.2c0-1.9-1.7-2.8-3.4-2.8c-1.6,0-3,0.5-4.1,1.4
	c-0.3,0.2-0.6,0.3-1,0.3c-0.8,0-1.5-0.6-1.5-1.5c0-0.3,0.1-0.5,0.3-0.8c1.1-1.5,3.9-2.4,6.2-2.4c3.7,0,6.8,1.9,6.8,5.6
	c0,3.4-3.1,7.1-8.1,10.1h6.9c0.8,0,1.5,0.7,1.5,1.5C35.9,35.3,35.2,36,34.4,36z M45.1,36.6c-2.7,0-5.4-1-6.5-2.5
	c-0.2-0.2-0.3-0.4-0.3-0.7c0-0.8,0.7-1.5,1.5-1.5c0.3,0,0.6,0.1,0.9,0.3c1.2,0.9,2.8,1.5,4.3,1.5c2.4,0,3.8-1.1,3.8-2.8
	c0-1.8-1.4-2.6-4.1-2.6c-1.2,0.1-2.4-0.3-2.4-1.5c0-0.8,0.6-1.5,1.5-1.5c2.6,0.1,4.6-0.4,4.6-2.4c0-1.7-1.7-2.6-3.7-2.6
	c-1.5,0-2.8,0.4-3.9,1.3c-0.3,0.2-0.5,0.3-0.8,0.3c-0.7,0-1.5-0.6-1.5-1.4c0-0.4,0.2-0.8,0.5-1c1.5-1.3,3.5-2.1,6-2.1
	c4.1,0,6.8,1.9,6.8,5c0,2.5-2.1,3.9-4.1,4.3c1.8,0.2,4.3,1.7,4.3,4.5C52.2,34.3,49.5,36.6,45.1,36.6z"/>
</svg>