<?xml version="1.0" encoding="utf-8"?>
<!-- Generator: Adobe Illustrator 20.1.0, SVG Export Plug-In . SVG Version: 6.00 Build 0)  -->
<svg version="1.1" id="Layer_1" xmlns="http://www.w3.org/2000/svg" xmlns:xlink="http://www.w3.org/1999/xlink" x="0px" y="0px"
	 viewBox="0 0 64 64" style="enable-background:new 0 0 64 64;" xml:space="preserve">
<title>icon-stop-circular</title>
<path d="M32,0C14.3,0,0,14.3,0,32s14.3,32,32,32s32-14.3,32-32S49.7,0,32,0z M38.7,48.8H25.4c-0.3,0-0.5-0.1-0.7-0.3l-9.4-9.3
	c-0.2-0.2-0.3-0.4-0.3-0.7V25.4c0-0.3,0.1-0.5,0.3-0.7l9.3-9.3c0.2-0.2,0.4-0.3,0.7-0.3h13.4c0.3,0,0.5,0.1,0.7,0.3l9.2,9.1
	c0.2,0.2,0.3,0.4,0.3,0.7v13.4c0,0.3-0.1,0.5-0.3,0.7l-9.3,9.2C39.2,48.7,39,48.8,38.7,48.8z M34.7,32.1l4-4c0.4-0.4,0.4-1.1,0-1.5
	l-1.1-1.2c-0.4-0.4-1.1-0.4-1.5,0l-4,4l-4-4c-0.4-0.4-1.1-0.4-1.5,0l-1.2,1.2c-0.4,0.4-0.4,1.1,0,1.5l4,4l-4,4
	c-0.4,0.4-0.4,1.1,0,1.5l1.2,1.2c0.4,0.4,1.1,0.4,1.5,0l4-4l4,4c0.4,0.4,1.1,0.4,1.5,0l1.2-1.2c0.4-0.4,0.4-1.1,0-1.5L34.7,32.1z"/>
</svg>
