<?xml version="1.0" encoding="utf-8"?>
<!-- Generator: Adobe Illustrator 17.1.0, SVG Export Plug-In . SVG Version: 6.00 Build 0)  -->
<!DOCTYPE svg PUBLIC "-//W3C//DTD SVG 1.1//EN" "http://www.w3.org/Graphics/SVG/1.1/DTD/svg11.dtd">
<svg version="1.1" id="Layer_1" xmlns="http://www.w3.org/2000/svg" xmlns:xlink="http://www.w3.org/1999/xlink" x="0px" y="0px"
	 viewBox="0 0 64 64" enable-background="new 0 0 64 64" xml:space="preserve">
<g>
	<path d="M0,20v35h43V20H0z M39,51H4V24h35V51z"/>
</g>
<g>
	<path d="M22,64h42V29H45v4h15v27H26v-3h-4V64z"/>
</g>
<g>
	<path d="M15.5,31.3c0.3-0.9,0.8-1.6,1.4-2.2c0.6-0.6,1.3-1.1,2.2-1.5s1.8-0.5,2.8-0.5c1.3,0,2.5,0.2,3.4,0.6
		c0.9,0.4,1.6,0.8,2.2,1.4c0.5,0.6,0.9,1.2,1.2,1.8c0.2,0.6,0.4,1.2,0.4,1.8c0,0.9-0.1,1.7-0.4,2.3c-0.2,0.6-0.5,1.1-0.9,1.5
		c-0.4,0.4-0.7,0.8-1.2,1.1c-0.4,0.3-0.8,0.6-1.2,0.9c-0.4,0.3-0.7,0.6-1,1s-0.5,0.9-0.6,1.4v1.1H20v-1.3c0.1-0.8,0.2-1.5,0.5-2.1
		c0.3-0.6,0.6-1,0.9-1.4c0.3-0.4,0.7-0.7,1.1-1c0.4-0.3,0.7-0.6,1.1-0.9c0.3-0.3,0.6-0.6,0.8-0.9c0.2-0.3,0.3-0.8,0.3-1.3
		c0-0.9-0.2-1.5-0.6-2c-0.4-0.4-1-0.6-1.8-0.6c-0.5,0-1,0.1-1.3,0.3c-0.4,0.2-0.7,0.5-0.9,0.8c-0.2,0.3-0.4,0.7-0.5,1.2
		c-0.1,0.5-0.2,0.9-0.2,1.5H15C15,33.1,15.2,32.1,15.5,31.3z M24,43.6V48h-4.5v-4.4H24z"/>
</g>
<path d="M61.4,13.6c-0.8-0.8-2-0.8-2.8,0L55,17.2V15c0-8.3-6.7-15-15-15c-8.3,0-15,6.7-15,15c0,1.1,0.9,2,2,2s2-0.9,2-2
	c0-6.1,4.9-11,11-11s11,4.9,11,11v2.2l-3.6-3.6c-0.8-0.8-2-0.8-2.8,0c-0.8,0.8-0.8,2,0,2.8l7,7C52,23.8,52.5,24,53,24s1-0.2,1.4-0.6
	l7-7C62.2,15.6,62.2,14.4,61.4,13.6z"/>
</svg>
