<?xml version="1.0" encoding="utf-8"?>
<!-- Generator: Adobe Illustrator 20.1.0, SVG Export Plug-In . SVG Version: 6.00 Build 0)  -->
<svg version="1.1" id="Layer_1" xmlns="http://www.w3.org/2000/svg" xmlns:xlink="http://www.w3.org/1999/xlink" x="0px" y="0px"
	 viewBox="0 0 64 64" style="enable-background:new 0 0 64 64;" xml:space="preserve">
<title>icon-lock</title>
<path d="M64,32c0,17.7-14.3,32-32,32S0,49.7,0,32S14.3,0,32,0S64,14.4,64,32z M41.6,25.5v-2.9c0-5.3-4.3-9.6-9.6-9.6
	s-9.6,4.3-9.6,9.6v2.9h-1.3c-0.7,0-1.3,0.5-1.3,1.2c0,0,0,0,0,0v16.9c0,0.7,0.5,1.3,1.2,1.3c0,0,0,0,0.1,0h21.8
	c0.7,0,1.3-0.5,1.3-1.2c0,0,0,0,0,0V26.8c0-0.7-0.5-1.3-1.2-1.3c0,0,0,0,0,0H41.6z M38.1,25.5H25.9v-2.9c0-4.1,2.5-6.5,6.8-6.1
	c3.7,0.3,5.5,2.6,5.5,6.3L38.1,25.5z"/>
</svg>
