<?xml version="1.0" encoding="utf-8"?>
<!-- Generator: Adobe Illustrator 20.0.0, SVG Export Plug-In . SVG Version: 6.00 Build 0)  -->
<svg version="1.1" id="Layer_1" xmlns="http://www.w3.org/2000/svg" xmlns:xlink="http://www.w3.org/1999/xlink" x="0px" y="0px"
	 viewBox="0 0 64 64" style="enable-background:new 0 0 64 64;" xml:space="preserve">
<g>
	<path d="M16.5,16C8,16,1,22.9,1,31.5S8,47,16.5,47S32,40.1,32,31.5S25.1,16,16.5,16z M25.8,29.1L15.9,39c-0.4,0.4-1,0.6-1.6,0.6
		c-0.6,0-1.1-0.2-1.6-0.6l-5.2-5.2c-0.9-0.9-0.9-2.2,0-3.1s2.2-0.9,3.1,0l3.7,3.7l8.3-8.3c0.9-0.9,2.2-0.9,3.1,0
		C26.6,26.9,26.6,28.2,25.8,29.1z"/>
	<g>
		<path d="M47.5,17C39,17,32,23.9,32,32.5S39,48,47.5,48S63,41,63,32.5S56.1,17,47.5,17z M54.9,36.9c0.5,0.5,0.5,1.2,0,1.7l-1.3,1.3
			c-0.5,0.5-1.2,0.5-1.7,0l-4.5-4.5l-4.5,4.5c-0.5,0.5-1.2,0.5-1.7,0l-1.3-1.3c-0.5-0.5-0.5-1.2,0-1.7l4.5-4.5L40.1,28
			c-0.5-0.5-0.5-1.2,0-1.7l1.3-1.3c0.5-0.5,1.2-0.5,1.7,0l4.5,4.5l4.5-4.5c0.5-0.5,1.2-0.5,1.7,0l1.3,1.3c0.5,0.5,0.5,1.2,0,1.7
			l-4.5,4.5L54.9,36.9z"/>
	</g>
</g>
</svg>
