<?xml version="1.0" encoding="utf-8"?>
<!-- Generator: Adobe Illustrator 20.1.0, SVG Export Plug-In . SVG Version: 6.00 Build 0)  -->
<svg version="1.1" id="Layer_1" xmlns="http://www.w3.org/2000/svg" xmlns:xlink="http://www.w3.org/1999/xlink" x="0px" y="0px"
	 viewBox="0 0 64 64" style="enable-background:new 0 0 64 64;" xml:space="preserve">
<path d="M6.4,10.2c0-2.8,2.3-5.1,5.1-5.1h41.1V5c0-2.8-2.3-5.1-5.1-5.1H5.1C2.3,0,0,2.2,0,5v28.9C0,36.7,2.3,39,5.1,39h1.3V10.2z"/>
<path d="M58.9,50H16.5c-2.8,0-5.1-2.3-5.1-5.1V16c0-2.8,2.3-5.1,5.1-5.1h42.4c2.8,0,5.1,2.3,5.1,5.1v28.9C64,47.7,61.7,50,58.9,50z"
	/>
<polygon points="37.7,64 24.5,47.5 50.9,47.5 "/>
</svg>
