<?xml version="1.0" encoding="utf-8"?>
<!-- Generator: Adobe Illustrator 17.1.0, SVG Export Plug-In . SVG Version: 6.00 Build 0)  -->
<!DOCTYPE svg PUBLIC "-//W3C//DTD SVG 1.1//EN" "http://www.w3.org/Graphics/SVG/1.1/DTD/svg11.dtd">
<svg version="1.1" id="Layer_1" xmlns="http://www.w3.org/2000/svg" xmlns:xlink="http://www.w3.org/1999/xlink" x="0px" y="0px"
	 viewBox="0 0 64 64" enable-background="new 0 0 64 64" xml:space="preserve">
<path d="M41.9,32l14.8-14.8c1.6-1.6,1.6-4.1,0-5.7l-4.2-4.2c-1.6-1.6-4.1-1.6-5.7,0L32,22.1L17.2,7.3c-1.6-1.6-4.1-1.6-5.7,0
	l-4.2,4.2c-1.6,1.6-1.6,4.1,0,5.7L22.1,32L7.3,46.8c-1.6,1.6-1.6,4.1,0,5.7l4.2,4.2c1.6,1.6,4.1,1.6,5.7,0L32,41.9l14.8,14.8
	c1.6,1.6,4.1,1.6,5.7,0l4.2-4.2c1.6-1.6,1.6-4.1,0-5.7L41.9,32z"/>
</svg>
