<svg xmlns="http://www.w3.org/2000/svg" viewBox="0 0 62 62"><title>icon-drawing-text--sizer</title><path d="M31,0A31,31,0,1,0,62,31,31,31,0,0,0,31,0ZM48.38,23.35a4.14,4.14,0,0,1-7,2.93,4,4,0,0,1-1.27-2.86v-.68H35.6V39.28h3.11A4.35,4.35,0,0,1,42.42,43l.09.65-.18.71a4.58,4.58,0,0,1-3.12,3l-.43.11H23.34a4.41,4.41,0,0,1-3.76-3.85L19.5,43l.18-.68a4.46,4.46,0,0,1,3.92-3.14h2.88V22.74H21.86v.72a4,4,0,0,1-4.05,4h-.06A4.1,4.1,0,0,1,14.64,26a4,4,0,0,1-1-2.63V18.32a3.83,3.83,0,0,1,3.83-3.82h27.1a3.88,3.88,0,0,1,3.83,3.8Z"/></svg>