<svg class="icon--star" data-name="Layer 1" xmlns="http://www.w3.org/2000/svg" viewBox="0 0 63.02 60.26">
    <path class="star-stroke" d="M42.61,20.7l18.77,2.83a1.33,1.33,0,0,1,.72,2.27L48.43,39A1.33,1.33,0,0,0,48,40.14l3.1,18.72a1.33,1.33,0,0,1-1.93,1.39L32.46,51.33a1.33,1.33,0,0,0-1.24,0L14.38,60.06a1.33,1.33,0,0,1-1.92-1.41L15.78,40a1.33,1.33,0,0,0-.38-1.18L1.88,25.46a1.33,1.33,0,0,1,.75-2.26l18.8-2.62a1.33,1.33,0,0,0,1-.72l8.49-17a1.33,1.33,0,0,1,2.38,0L41.61,20A1.33,1.33,0,0,0,42.61,20.7Z" transform="translate(-0.49 -1.15)"/>
</svg>