<?xml version="1.0" encoding="utf-8"?>
<!DOCTYPE svg PUBLIC "-//W3C//DTD SVG 1.1//EN" "http://www.w3.org/Graphics/SVG/1.1/DTD/svg11.dtd">
<svg version="1.1" id="Layer_1" xmlns="http://www.w3.org/2000/svg" xmlns:xlink="http://www.w3.org/1999/xlink" x="0px" y="0px"
	 viewBox="0 0 64 64" enable-background="new 0 0 64 64" xml:space="preserve">
<path d="M60,4H4C1.8,4,0,5.8,0,8v40c0,2.2,1.8,4,4,4h36.6l11.7,11.7c0.2,0.2,0.4,0.3,0.7,0.3c0.1,0,0.3,0,0.4-0.1
	c0.4-0.2,0.6-0.5,0.6-0.9V52h6c2.2,0,4-1.8,4-4V8C64,5.8,62.2,4,60,4z M20.1,36.4c-0.4,0-0.9-0.2-1.1-0.6l-3.2-4.5l-3.2,4.5
	c-0.3,0.4-0.7,0.6-1.1,0.6c-0.8,0-1.4-0.6-1.4-1.4c0-0.3,0.1-0.5,0.3-0.8l3.6-5l-3.3-4.6c-0.2-0.3-0.3-0.5-0.3-0.8
	c0-0.7,0.6-1.4,1.4-1.4c0.4,0,0.9,0.2,1.1,0.6l2.9,4.1l2.8-4.1c0.3-0.4,0.7-0.6,1.2-0.6c0.8,0,1.4,0.6,1.4,1.3
	c0,0.3-0.1,0.5-0.3,0.8l-3.3,4.6l3.6,5c0.2,0.2,0.2,0.5,0.2,0.8C21.5,35.7,21,36.4,20.1,36.4z M30.8,27h-6.4c-0.5,0-0.9-0.4-0.9-1
	c0-0.3,0.1-0.6,0.4-0.8c4-3,5.6-4.4,5.6-6c0-1.1-1-1.6-2-1.6c-0.9,0-1.7,0.3-2.4,0.8c-0.2,0.1-0.4,0.2-0.6,0.2
	c-0.5,0-0.9-0.4-0.9-0.9c0-0.1,0-0.3,0.1-0.5c0.7-0.8,2.3-1.4,3.6-1.4c2.1,0,4,1.1,4,3.3c0,2-1.8,3.9-4.7,5.9h4c0.5,0,0.8,0.5,0.8,1
	C31.6,26.5,31.2,27,30.8,27z M45.9,24.6l-5.8,14.1c-0.9,2.2-2.5,3.1-4.4,3.1c-1,0-2-0.4-2-1.3c0-0.7,0.6-1.3,1.4-1.3
	c0.2,0,0.4,0,0.6,0c0.7-0.1,1.2-0.4,1.6-1.1l0.7-1.5l-4.8-11.9c-0.1-0.2-0.1-0.3-0.1-0.5c0-0.7,0.6-1.5,1.5-1.5c0.6,0,1.1,0.4,1.4,1
	l3.6,9.2l3.6-9.2c0.2-0.6,0.8-1,1.4-1c0.9,0,1.5,0.7,1.5,1.5C46.1,24.2,46,24.4,45.9,24.6z M54.6,27h-6.4c-0.5,0-0.9-0.4-0.9-1
	c0-0.3,0.1-0.6,0.4-0.8c4-3,5.6-4.4,5.6-6c0-1.1-1-1.6-2-1.6c-0.9,0-1.7,0.3-2.4,0.8c-0.2,0.1-0.4,0.2-0.6,0.2
	c-0.5,0-0.9-0.4-0.9-0.9c0-0.1,0-0.3,0.1-0.5c0.7-0.8,2.3-1.4,3.6-1.4c2.1,0,4,1.1,4,3.3c0,2-1.8,3.9-4.7,5.9h4c0.5,0,0.8,0.5,0.8,1
	C55.4,26.5,55.1,27,54.6,27z"/>
</svg>