<?xml version="1.0" encoding="utf-8"?>
<!-- Generator: Adobe Illustrator 17.1.0, SVG Export Plug-In . SVG Version: 6.00 Build 0)  -->
<!DOCTYPE svg PUBLIC "-//W3C//DTD SVG 1.1//EN" "http://www.w3.org/Graphics/SVG/1.1/DTD/svg11.dtd">
<svg version="1.1" id="Layer_1" xmlns="http://www.w3.org/2000/svg" xmlns:xlink="http://www.w3.org/1999/xlink" x="0px" y="0px"
	 viewBox="0 0 64 64" enable-background="new 0 0 64 64" xml:space="preserve">
<g id="brush">
	<path d="M32,42.7C32,36.8,27.2,32,21.3,32s-10.7,4.8-10.7,10.7l0,0c0,8-4.3,14.7-10.7,18.4l0,0C3.2,62.9,6.7,64,10.7,64
		C22.4,64,32,54.4,32,42.7L32,42.7z"/>
	<path d="M61.6,2.4c-3.2-3.2-8.3-3.2-11.2,0L27.5,25.1c5.3,1.9,9.3,6.1,11.2,11.2l22.9-22.9C64.8,10.4,64.8,5.6,61.6,2.4z"/>
</g>
</svg>
