<?xml version="1.0" encoding="utf-8"?>
<!-- Generator: Adobe Illustrator 22.0.1, SVG Export Plug-In . SVG Version: 6.00 Build 0)  -->
<svg version="1.1" id="Layer_1" xmlns="http://www.w3.org/2000/svg" xmlns:xlink="http://www.w3.org/1999/xlink" x="0px" y="0px"
	 viewBox="0 0 56.7 57.8" style="enable-background:new 0 0 56.7 57.8;" xml:space="preserve">
<title>icon-drawing-undo</title>
<path d="M41.5,56.9c-1.5-0.9-2.5-2.3-2.7-4c-0.2-1.2,0-2.5,0.6-3.6c1.1-2.2,2.6-6.3-0.2-9.4c-1.9-2-4.4-3.4-7.2-4l0.9,2.2
	c0.9,2.4-0.3,5.1-2.7,6c-1.1,0.4-2.4,0.4-3.5-0.1L2.7,32.8c-2.3-1.1-3.4-3.8-2.3-6.2c0,0,0,0,0,0L11.6,2.6c1.2-2.3,4-3.2,6.3-2
	c1.1,0.5,1.9,1.4,2.3,2.6l1.1,4.5c11.9-1.8,23.2,2.3,30,11.2c7.7,10.1,7.4,23.7-0.8,35.5c-1,1.4-2.4,2.5-4,3.1l0,0
	C44.7,58,42.9,57.8,41.5,56.9z M19.6,14.1l-2,0.5c-0.5,0.2-1.1-0.1-1.2-0.7l-1-4.3c0-0.1-0.2-0.1-0.2-0.1c0,0-0.1,0.1-0.1,0.1
	L6.8,27.3c-0.1,0.3,0,0.7,0.3,0.9l18.2,8.5c0.1,0,0.2,0,0.3-0.1c0-0.1,0-0.1,0-0.2l-2.1-5.3c-0.2-0.4,0-0.9,0.5-1.1
	c0.1,0,0.1,0,0.2-0.1l2.9-0.3c6.2-0.6,12.3,1.7,16.6,6.1c3.1,3.4,4,8.2,2.4,13.1c-0.1,0.1,0,0.2,0.1,0.3c0.1,0.1,0.2,0,0.3-0.1
	C52,39.9,52,30,46.4,22.5c-4.5-6-11.7-9.2-19.7-9.2C24.3,13.3,21.9,13.6,19.6,14.1z M5.3,27.3L5.3,27.3z"/>
</svg>
