<?xml version="1.0" encoding="utf-8"?>
<!-- Generator: Adobe Illustrator 22.0.1, SVG Export Plug-In . SVG Version: 6.00 Build 0)  -->
<svg version="1.1" id="Layer_1" xmlns="http://www.w3.org/2000/svg" xmlns:xlink="http://www.w3.org/1999/xlink" x="0px" y="0px"
	 viewBox="0 0 60 60" style="enable-background:new 0 0 60 60;" xml:space="preserve">
<path d="M2.3,38.7L21.5,58c0.9,0.9,2,1.3,3.2,1.3s2.4-0.4,3.2-1.3l6.7-6.7l0,0l23.7-23.7c0.9-0.9,1.3-2,1.3-3.2s-0.5-2.3-1.3-3.2
	L39,1.9c-0.9-0.9-2-1.3-3.2-1.3s-2.3,0.5-3.2,1.3L13.2,21.3l0,0l-11,11c-0.9,0.9-1.3,2-1.3,3.2S1.4,37.9,2.3,38.7z M35.8,7.3
	L53,24.4L34.7,42.7l-8.6-8.6l-8.6-8.6L35.8,7.3z"/>
</svg>
