<?xml version="1.0" encoding="utf-8"?>
<!-- Generator: Adobe Illustrator 17.1.0, SVG Export Plug-In . SVG Version: 6.00 Build 0)  -->
<!DOCTYPE svg PUBLIC "-//W3C//DTD SVG 1.1//EN" "http://www.w3.org/Graphics/SVG/1.1/DTD/svg11.dtd">
<svg version="1.1" id="Layer_1" xmlns="http://www.w3.org/2000/svg" xmlns:xlink="http://www.w3.org/1999/xlink" x="0px" y="0px"
	 viewBox="0 0 64 64" enable-background="new 0 0 64 64" xml:space="preserve">
<g>
	<path d="M33,35c-1.4-0.9-2.8-1.7-4.4-2.3c1.8-1.8,3.2-4.6,3.7-8.5c0.8,0.1,1.9-0.7,2.2-2.2c0.4-1.5,0.9-3.9,0.1-4.2
		c-0.2-0.1-0.6,0-0.6,0.1v-4c0-4.4-0.5-8.8-5.3-10.6c-0.8-1.8-1-3.3-1-3.3c-2.1,2-10.3,3-10.3,3h0.1C7.2,4,8,7.6,8,14v4.1
		C8,18,7.8,17.9,7.6,18c-0.8,0.2-0.4,2.6,0,4.1c0.3,1.4,1.7,2.4,2.5,2.3c0.6,4,1.8,6.7,3.5,8.5C5.8,35.8,0.2,43,0.2,52h28.4
		c-0.3-1-0.4-2.6-0.4-4C28.2,43,30,38.5,33,35z"/>
</g>
<path d="M48,32c-8.8,0-16,7.2-16,16s7.2,16,16,16s16-7.2,16-16S56.8,32,48,32z M36,48c0-6.6,5.4-12,12-12c2.6,0,5,0.8,6.9,2.2
	L38.2,54.9C36.8,53,36,50.6,36,48z M48,60c-2.6,0-5-0.8-6.9-2.2l16.7-16.7c1.4,2,2.2,4.4,2.2,6.9C60,54.6,54.6,60,48,60z"/>
</svg>
