<?xml version="1.0" encoding="utf-8"?>
<!-- Generator: Adobe Illustrator 17.1.0, SVG Export Plug-In . SVG Version: 6.00 Build 0)  -->
<!DOCTYPE svg PUBLIC "-//W3C//DTD SVG 1.1//EN" "http://www.w3.org/Graphics/SVG/1.1/DTD/svg11.dtd">
<svg version="1.1" id="Layer_1" xmlns="http://www.w3.org/2000/svg" xmlns:xlink="http://www.w3.org/1999/xlink" x="0px" y="0px"
	 viewBox="0 0 64 64" enable-background="new 0 0 64 64" xml:space="preserve">
<g>
	<path d="M32,9c12.7,0,23,10.3,23,23S44.7,55,32,55S9,44.7,9,32S19.3,9,32,9 M32,0C14.3,0,0,14.3,0,32s14.3,32,32,32s32-14.3,32-32
		S49.7,0,32,0L32,0z"/>
</g>
<g>
	<path d="M32,22c5.5,0,10,4.5,10,10s-4.5,10-10,10s-10-4.5-10-10S26.5,22,32,22 M32,13c-10.5,0-19,8.5-19,19s8.5,19,19,19
		s19-8.5,19-19S42.5,13,32,13L32,13z"/>
</g>
<circle cx="32" cy="32" r="6"/>
</svg>
