<svg id="Layer_1" data-name="Layer 1" xmlns="http://www.w3.org/2000/svg" viewBox="0 0 64 64"><title>icon-speaker-notes</title><path d="M38.44,25.65s0,0,0,.06h6V21.36a1.79,1.79,0,0,0-1.79-1.79H38.3V25A1.77,1.77,0,0,1,38.44,25.65Z" transform="translate(0 -0.02)"/><path d="M37.74,29.27A3,3,0,0,1,35,27.43H23.33a1.78,1.78,0,0,1,0-3.56H34.75V19.57H21.34a1.79,1.79,0,0,0-1.79,1.79V42.67a1.79,1.79,0,0,0,1.79,1.79H42.66a1.79,1.79,0,0,0,1.79-1.79V29.27Zm3.1,11.2H23.33a1.78,1.78,0,0,1,0-3.56H40.84a1.78,1.78,0,0,1,0,3.56Zm0-6.52H23.33a1.78,1.78,0,0,1,0-3.56H40.84a1.78,1.78,0,0,1,0,3.56Z" transform="translate(0 -0.02)"/><path d="M32,0A32,32,0,1,0,64,32,32,32,0,0,0,32,0ZM48,21.36V42.67A5.35,5.35,0,0,1,42.66,48H21.34A5.35,5.35,0,0,1,16,42.67V21.36A5.35,5.35,0,0,1,21.34,16H45a3,3,0,0,1,3,3Z" transform="translate(0 -0.02)"/></svg>