<?xml version="1.0" encoding="utf-8"?>
<!-- Generator: Adobe Illustrator 17.1.0, SVG Export Plug-In . SVG Version: 6.00 Build 0)  -->
<!DOCTYPE svg PUBLIC "-//W3C//DTD SVG 1.1//EN" "http://www.w3.org/Graphics/SVG/1.1/DTD/svg11.dtd">
<svg version="1.1" id="Layer_1" xmlns="http://www.w3.org/2000/svg" xmlns:xlink="http://www.w3.org/1999/xlink" x="0px" y="0px"
	 viewBox="0 0 64 64" enable-background="new 0 0 64 64" xml:space="preserve">
<path d="M51,33.3c-2-2.5-4.3-3.8-6.8-3.8V9.8c1.3,0,2.5-0.5,3.4-1.5c1-1,1.5-2.1,1.5-3.5c0-1.3-0.5-2.5-1.5-3.5
	c-1-1-2.1-1.5-3.4-1.5H19.8c-1.3,0-2.5,0.5-3.4,1.5s-1.5,2.1-1.5,3.5s0.5,2.5,1.5,3.5s2.1,1.5,3.4,1.5v19.7c-2.5,0-4.8,1.3-6.8,3.8
	c-2,2.5-3,5.4-3,8.5c0,0.7,0.2,1.2,0.7,1.7c0.5,0.5,1.1,0.7,1.7,0.7h15.4L30.8,63c0.1,0.7,0.5,1,1.2,1h0c0.3,0,0.6-0.1,0.8-0.3
	c0.2-0.2,0.3-0.5,0.4-0.8l1.9-18.6h16.4c0.7,0,1.2-0.2,1.7-0.7c0.5-0.5,0.7-1.1,0.7-1.7C54,38.7,53,35.9,51,33.3z M28.3,28.3
	c0,0.4-0.1,0.7-0.3,0.9c-0.2,0.2-0.5,0.3-0.9,0.3c-0.4,0-0.6-0.1-0.9-0.3c-0.2-0.2-0.3-0.5-0.3-0.9V11.1c0-0.4,0.1-0.7,0.3-0.9
	c0.2-0.2,0.5-0.3,0.9-0.3c0.4,0,0.6,0.1,0.9,0.3c0.2,0.2,0.3,0.5,0.3,0.9V28.3z"/>
</svg>
