<?xml version="1.0" encoding="UTF-8"?>
<svg viewBox="0 0 64 64" version="1.1" xmlns="http://www.w3.org/2000/svg" xmlns:xlink="http://www.w3.org/1999/xlink">
        <g transform="translate(6.000000, 0.000000)">
            <path d="M47.6047904,10.5436573 L36.2854291,10.5436573 L36.2854291,9.91103789 C36.2854291,4.42833608 31.8423154,0 26.3413174,0 C20.8403194,0 16.3972056,4.42833608 16.3972056,9.91103789 L16.3972056,10.5436573 L5.28942116,10.5436573 C2.32734531,10.5436573 0,12.9686985 0,15.815486 L0,21.4036244 C0,23.9341021 1.79840319,26.1482702 4.23153693,26.5700165 L5.9241517,58.9390445 C6.02994012,61.785832 8.46307385,64 11.2135729,64 L41.7864271,64 C44.6427146,64 46.9700599,61.785832 47.0758483,58.9390445 L48.7684631,26.5700165 C51.2015968,26.0428336 53,23.9341021 53,21.4036244 L53,15.815486 C53,12.9686985 50.5668663,10.5436573 47.6047904,10.5436573 Z M26.3413174,6.3261944 C28.245509,6.3261944 29.8323353,7.907743 29.9381238,9.80560132 L22.8502994,9.80560132 C22.8502994,7.907743 24.4371257,6.3261944 26.3413174,6.3261944 Z M46.6526946,16.8698517 L46.6526946,20.0329489 L6.24151697,20.0329489 L6.24151697,16.8698517 L46.6526946,16.8698517 Z M40.7285429,57.7792422 L12.1656687,57.7792422 L10.5788423,26.7808896 L42.4211577,26.7808896 L40.7285429,57.7792422 Z" id="Shape"></path>
            <path d="M29.0412132,45.1265646 L29.0412132,52.7105925 C29.0412132,54.0079234 27.9011552,55 26.4103101,55 C24.919465,55 23.7794071,54.0079234 23.7794071,52.7105925 L23.7794071,45.4343264 C23.1043646,46.501326 21.4308715,46.6381696 19.8760102,45.74047 C18.2914664,44.8256333 17.5757948,43.2668887 18.2244603,42.1433672 L23.2278064,33.4773175 C23.3330931,33.203925 23.4889954,32.9332024 23.6908613,32.6752828 L24.1006061,31.9655841 C24.54753,31.1914892 25.4972079,30.8749829 26.5629512,31.0521998 C27.5616662,30.9324986 28.4759952,31.232236 28.8993939,31.9655841 L29.3951218,32.82421 C29.5050594,32.9828559 29.5993308,33.1460696 29.6763563,33.3113224 L34.7755397,42.1433672 C35.4242052,43.2668887 34.7085336,44.8256333 33.1239898,45.74047 C31.5394461,46.6553068 29.8316979,46.4957243 29.1830325,45.3722028 L29.0412132,45.1265646 Z" id="Combined-Shape"></path>
        </g>
</svg>