<svg xmlns="http://www.w3.org/2000/svg" viewBox="0 0 19.83 63"><defs><style>.a{opacity:0.35;}.b{fill:#616263;}</style></defs><title>icon-drawing-sizing-lines</title><g class="a"><path class="b" d="M19.83,3A2.5,2.5,0,0,0,17.33.5H0v5H17.33A2.5,2.5,0,0,0,19.83,3Z" transform="translate(0 -0.5)"/><path class="b" d="M14.17,12.67a2.5,2.5,0,0,0-2.5-2.5H0v5H11.67A2.5,2.5,0,0,0,14.17,12.67Z" transform="translate(0 -0.5)"/><path class="b" d="M17.33,19.83H0v5H17.33a2.5,2.5,0,0,0,0-5Z" transform="translate(0 -0.5)"/><path class="b" d="M14.17,32a2.5,2.5,0,0,0-2.5-2.5H0v5H11.67A2.5,2.5,0,0,0,14.17,32Z" transform="translate(0 -0.5)"/><path class="b" d="M17.33,39.17H0v5H17.33a2.5,2.5,0,0,0,0-5Z" transform="translate(0 -0.5)"/><path class="b" d="M14.17,51.33a2.51,2.51,0,0,0-2.5-2.5H0v5H11.67A2.5,2.5,0,0,0,14.17,51.33Z" transform="translate(0 -0.5)"/><path class="b" d="M17.33,58.5H0v5H17.33a2.5,2.5,0,0,0,0-5Z" transform="translate(0 -0.5)"/></g></svg>