<svg xmlns="http://www.w3.org/2000/svg" viewBox="0 0 62 52.02"><defs><style>.a{fill:none;}</style></defs><title>icon-unarchive</title><path d="M60.9,20a5.89,5.89,0,0,0-4.5-2.3h-2V13.1a5.57,5.57,0,0,0-5.5-5.6H30.4a1.38,1.38,0,0,1-1.1-1.3V5.6A5.51,5.51,0,0,0,23.8,0H5.6A5.57,5.57,0,0,0,0,5.5V46.3A5.76,5.76,0,0,0,5.7,52H49.4a5.58,5.58,0,0,0,5.4-4l6.9-23.1A5.08,5.08,0,0,0,60.9,20ZM4.2,5.6A1.35,1.35,0,0,1,5.5,4.2H23.6A1.37,1.37,0,0,1,25,5.6h0v.6a5.07,5.07,0,0,0,.2,1.3H4.2Zm0,6.1H48.8a1.37,1.37,0,0,1,1.4,1.4h0v4.6H13.6a5.71,5.71,0,0,0-5.4,3.8l-4.1,12ZM51,47a1.54,1.54,0,0,1-1.5,1l-43.6.1a1.31,1.31,0,0,1-1.2-.6,1.72,1.72,0,0,1-.2-1.2l7.9-23.1a1.5,1.5,0,0,1,1.4-1H56.5a1.43,1.43,0,0,1,1.2.6C57.9,23,51,47,51,47Z" transform="translate(0 0)"/><path d="M60.9,20a5.93,5.93,0,0,0-4.6-2.3h-2V13.1a5.57,5.57,0,0,0-5.5-5.6H30.4a1.38,1.38,0,0,1-1.1-1.3V5.6A5.51,5.51,0,0,0,23.8,0H5.6A5.57,5.57,0,0,0,0,5.5V46.3A5.76,5.76,0,0,0,5.7,52l43.7-.1a5.58,5.58,0,0,0,5.4-4l6.9-23.1A4.94,4.94,0,0,0,60.9,20ZM13.6,17.7a5.71,5.71,0,0,0-5.4,3.8l-4.1,12V11.7H48.7a1.37,1.37,0,0,1,1.4,1.4v4.6Z" transform="translate(0 0)"/><path class="a" d="M48.79,11.74H4.2V33.53l4.07-12a5.66,5.66,0,0,1,5.37-3.79H50.17V13.12A1.38,1.38,0,0,0,48.79,11.74Z" transform="translate(0 0)"/><path class="a" d="M60.91,20a5.68,5.68,0,0,0-4.55-2.27h-2V13.09a5.56,5.56,0,0,0-5.54-5.58H30.4a1.38,1.38,0,0,1-1.12-1.35V5.62A5.56,5.56,0,0,0,23.78,0H5.58A5.56,5.56,0,0,0,0,5.54s0,.05,0,.08V46.3A5.79,5.79,0,0,0,5.72,52L49.41,52a5.77,5.77,0,0,0,5.44-4l6.89-23.08A5.37,5.37,0,0,0,60.91,20ZM50.17,17.74H13.64a5.66,5.66,0,0,0-5.37,3.79l-4.07,12V11.74H48.79a1.38,1.38,0,0,1,1.38,1.38Z" transform="translate(0 0)"/></svg>