<?xml version="1.0" encoding="UTF-8" standalone="no"?>
<svg viewBox="0 0 48 48" version="1.1" xmlns="http://www.w3.org/2000/svg" xmlns:xlink="http://www.w3.org/1999/xlink" xmlns:sketch="http://www.bohemiancoding.com/sketch/ns">
    <!-- Generator: Sketch 3.3.2 (12043) - http://www.bohemiancoding.com/sketch -->
    <title>48x48_yellow_stroke_icon copy</title>
    <desc>Created with Sketch.</desc>
    <defs></defs>
    <g id="Page-1" stroke="none" stroke-width="1" fill="none" fill-rule="evenodd" sketch:type="MSPage">
        <g id="Exports" sketch:type="MSArtboardGroup" transform="translate(-631.000000, -493.000000)">
            <g id="48x48_yellow_stroke_icon-copy" sketch:type="MSLayerGroup" transform="translate(631.000000, 493.000000)">
                <g id="CubeYelow-Copy-2-+-CubeGreen-Copy-2-Copy" sketch:type="MSShapeGroup">
                    <rect id="CubeYelow-Copy-2" stroke="#FFC112" stroke-width="8" fill="#FFC112" x="0" y="0" width="48" height="48"></rect>
                    <rect id="CubeGreen-Copy-2" fill="#21A465" x="4" y="4" width="40" height="40"></rect>
                </g>
                <g id="Shape-Copy-2-+-Shape-Copy" transform="translate(9.000000, 15.000000)" sketch:type="MSShapeGroup">
                    <path d="M25.5,9 C26.8805556,9 28,7.88055556 28,6.5 C28,5.11944444 26.8805556,4 25.5,4 C24.1194444,4 23,5.11944444 23,6.5 C23,7.88055556 24.1194444,9 25.5,9 L25.5,9 Z M25,11 C22.108,11 19,12.4194444 19,14.175 L19,16 L31,16 L31,14.175 C31,12.4194444 27.892,11 25,11 L25,11 Z M5.5,9 C6.88055556,9 8,7.88055556 8,6.5 C8,5.11944444 6.88055556,4 5.5,4 C4.11944444,4 3,5.11944444 3,6.5 C3,7.88055556 4.11944444,9 5.5,9 L5.5,9 Z M6,11 C3.108,11 0,12.4194444 0,14.175 L0,16 L12,16 L12,14.175 C12,12.4194444 8.892,11 6,11 L6,11 Z" id="Shape-Copy-2" fill="#57BB8A"></path>
                    <path d="M14.5029167,7 C16.43375,7 18,5.43375 18,3.5 C18,1.56916667 16.43375,0 14.5029167,0 C12.5691667,0 11,1.56916667 11,3.5 C11,5.43375 12.5691667,7 14.5029167,7 L14.5029167,7 Z M15,9 C11.1428571,9 7,11.0883333 7,13.6666667 L7,16 L23,16 L23,13.6666667 C23,11.0883333 18.8571429,9 15,9 L15,9 Z" id="Shape-Copy" fill="#F7F7F7"></path>
                </g>
                <path d="M28,41 L40,41 L40,44 L28,44 L28,41 Z" id="Shape" fill="#F1F1F1" sketch:type="MSShapeGroup"></path>
            </g>
        </g>
    </g>
</svg>
