<?xml version="1.0" encoding="utf-8"?>
<!-- Generator: Adobe Illustrator 17.1.0, SVG Export Plug-In . SVG Version: 6.00 Build 0)  -->
<!DOCTYPE svg PUBLIC "-//W3C//DTD SVG 1.1//EN" "http://www.w3.org/Graphics/SVG/1.1/DTD/svg11.dtd">
<svg version="1.1" id="Layer_1" xmlns="http://www.w3.org/2000/svg" xmlns:xlink="http://www.w3.org/1999/xlink" x="0px" y="0px"
	 viewBox="0 0 64 64" enable-background="new 0 0 64 64" xml:space="preserve">
<path d="M52.7,44"/>
<path d="M58,8H6c-3.3,0-6,2.7-6,6v30c0,3.3,2.7,6,6,6h34l14,14V50h4c3.3,0,6-2.7,6-6V14C64,10.7,61.3,8,58,8z M52,36H12
	c-1.1,0-2-0.9-2-2s0.9-2,2-2H52c1.1,0,2,0.9,2,2S53.1,36,52,36z M52,26H12c-1.1,0-2-0.9-2-2s0.9-2,2-2H52c1.1,0,2,0.9,2,2
	S53.1,26,52,26z"/>
</svg>
