<?xml version="1.0" encoding="utf-8"?>
<!-- Generator: Adobe Illustrator 20.1.0, SVG Export Plug-In . SVG Version: 6.00 Build 0)  -->
<svg version="1.1" id="Layer_1" xmlns="http://www.w3.org/2000/svg" xmlns:xlink="http://www.w3.org/1999/xlink" x="0px" y="0px"
	 viewBox="0 0 64 64" style="enable-background:new 0 0 64 64;" xml:space="preserve">
<title>48_px - Regular - 70 Basic Icons</title>
<g>
	<path d="M24.4,29H4.6C2,29,0,26.9,0,24.4V4.6C0,2,2,0,4.6,0h19.8C26.9,0,29,2,29,4.6v19.8C29,26.9,26.9,29,24.4,29z M6.1,22.9h16.8
		V6.1H6.1V22.9z"/>
	<path d="M59.4,29H39.6c-2.5,0-4.6-2-4.6-4.6V4.6C35,2,37.1,0,39.6,0h19.8C62,0,64,2,64,4.6v19.8C64,26.9,62,29,59.4,29z M41.1,22.9
		h16.8V6.1H41.1V22.9z"/>
	<path d="M24.4,64H4.6C2,64,0,62,0,59.4V39.6C0,37.1,2,35,4.6,35h19.8c2.5,0,4.6,2,4.6,4.6v19.8C29,62,26.9,64,24.4,64z M6.1,57.9
		h16.8V41.1H6.1V57.9z"/>
	<path d="M59.4,64H39.6c-2.5,0-4.6-2-4.6-4.6V39.6c0-2.5,2-4.6,4.6-4.6h19.8c2.5,0,4.6,2,4.6,4.6v19.8C64,62,62,64,59.4,64z
		 M41.1,57.9h16.8V41.1H41.1V57.9z"/>
</g>
</svg>
