<?xml version="1.0" encoding="utf-8"?>
<!-- Generator: Adobe Illustrator 20.1.0, SVG Export Plug-In . SVG Version: 6.00 Build 0)  -->
<svg version="1.1" id="Layer_1" xmlns="http://www.w3.org/2000/svg" xmlns:xlink="http://www.w3.org/1999/xlink" x="0px" y="0px"
	 viewBox="0 0 64 64" style="enable-background:new 0 0 64 64;" xml:space="preserve">
<title>icon-lock-open</title>
<g>
	<path d="M32,63C14.9,63,1,49.1,1,32C1,14.9,14.9,1,32,1c17.1,0,31,13.9,31,31C63,49.1,49.1,63,32,63L32,63z M32,7.4
		C18.5,7.4,7.4,18.4,7.4,32s11,24.6,24.6,24.6c13.5,0,24.6-11,24.6-24.6S45.5,7.4,32,7.4L32,7.4z"/>
	<path d="M47.1,38.3l-15.1,0c-3.2,0-5.8-2.6-5.8-5.8l0-13.9c0-2,1.4-3.7,3.4-4c2.4-0.3,4.4,1.5,4.4,3.8v12.1h13.3
		c2.3,0,4.1,2,3.8,4.4C50.8,36.9,49,38.3,47.1,38.3z"/>
</g>
</svg>
