<svg xmlns="http://www.w3.org/2000/svg" viewBox="0 0 61.83 60.52">
<path d="M60.9,9.09,55.49,3.67a6.63,6.63,0,0,0-9-.32L12,33.24c-.49.42-1.7,1.52-2.16,2L6.16,38.89A4.45,4.45,0,0,0,4.85,42v8.34L2.27,53A4.45,4.45,0,0,0,4,60.29l5.43,1.82a3.09,3.09,0,0,0,.95.15,3,3,0,0,0,2.12-.88l1.68-1.67h8.34a4.49,4.49,0,0,0,3.15-1.31l3.65-3.66c.46-.45,1.55-1.65,2-2.15L61.21,18.11A6.62,6.62,0,0,0,60.9,9.09Zm-4.22,5.08L26.84,48.63c-.37.42-1.32,1.47-1.72,1.87l-1.27,1.27a.37.37,0,0,1-.53,0L12.79,41.27a.39.39,0,0,1,0-.53l1.28-1.27c.39-.4,1.43-1.33,1.85-1.7L50.42,7.89a.59.59,0,0,1,.82,0l5.42,5.41A.61.61,0,0,1,56.68,14.17Z" transform="translate(-1 -1.74)"/></svg>