<?xml version="1.0" encoding="UTF-8"?>
<svg viewBox="0 0 64 64" version="1.1" xmlns="http://www.w3.org/2000/svg" xmlns:xlink="http://www.w3.org/1999/xlink">
    <g transform="translate(1.000000, 0.000000)">
        <path d="M54.4027429,48.9586286 C55.6653714,48.9586286 56.6884571,49.9817143 56.6884571,51.2443429 L56.6884571,55.3138286 C56.6884571,56.5764571 55.6653714,57.5995429 54.4027429,57.5995429 L2.28571429,57.5995429 C1.02308571,57.5995429 0,56.5764571 0,55.3138286 L0,20.5590857 L0,3.36228571 L0,3.19954286 C0,1.93782857 1.02308571,0.913828571 2.28571429,0.913828571 L54.4027429,0.913828571 C55.6653714,0.913828571 56.6884571,1.93782857 56.6884571,3.19954286 L56.6884571,3.36228571 L56.6884571,20.1138286 L56.6884571,20.5590857 C56.6884571,21.8217143 55.6653714,22.8448 54.4027429,22.8448 L4.57142857,22.8448 L4.57142857,53.0281143 L52.1170286,53.0281143 L52.1170286,51.2443429 C52.1170286,49.9817143 53.1401143,48.9586286 54.4027429,48.9586286 Z M4.57142857,18.2742857 L52.1170286,18.2742857 L52.1170286,5.648 L4.57142857,5.648 L4.57142857,18.2742857 Z" id="Fill-1"></path>
        <path d="M10.9616457,9.06514286 C9.36256,9.06514286 8.06701714,10.3616 8.06701714,11.9606857 C8.06701714,13.5597714 9.36256,14.8553143 10.9616457,14.8553143 C12.5607314,14.8553143 13.8571886,13.5597714 13.8571886,11.9606857 C13.8571886,10.3616 12.5607314,9.06514286 10.9616457,9.06514286" id="Fill-3"></path>
        <path d="M18.2759314,9.06514286 C16.6768457,9.06514286 15.3813029,10.3616 15.3813029,11.9606857 C15.3813029,13.5597714 16.6768457,14.8553143 18.2759314,14.8553143 C19.8750171,14.8553143 21.1714743,13.5597714 21.1714743,11.9606857 C21.1714743,10.3616 19.8750171,9.06514286 18.2759314,9.06514286" id="Fill-4"></path>
        <path d="M25.7536,9.06514286 C24.1545143,9.06514286 22.8580571,10.3616 22.8580571,11.9606857 C22.8580571,13.5597714 24.1545143,14.8553143 25.7536,14.8553143 C27.3526857,14.8553143 28.6491429,13.5597714 28.6491429,11.9606857 C28.6491429,10.3616 27.3526857,9.06514286 25.7536,9.06514286" id="Fill-5"></path>
        <path d="M55.0816,27.64096 C54.1883429,26.7486171 52.7419429,26.7486171 51.8486857,27.64096 C50.9563429,28.5333029 50.9563429,29.9806171 51.8486857,30.8738743 L55.2836571,34.3079314 L37.3243429,34.3079314 C36.0617143,34.3079314 35.0386286,35.3310171 35.0386286,36.5936457 C35.0386286,37.85536 36.0617143,38.87936 37.3243429,38.87936 L55.0816,38.87936 L51.4217143,42.9067886 C50.9206857,43.90976 51.2205714,45.1285029 52.1293714,45.7831314 C52.5316571,46.0738743 52.9988571,46.2155886 53.4651429,46.2155886 C54.0548571,46.2155886 54.6390857,45.9879314 55.0825143,45.5463314 L62.4187429,38.2101029 C62.8475429,37.7813029 63.088,37.1998171 63.088,36.5936457 C63.088,35.9874743 62.8475429,35.4059886 62.4187429,34.9771886 L55.0816,27.64096 Z" id="Fill-6"></path>
    </g>
</svg>