<?xml version="1.0" encoding="utf-8"?>
<!-- Generator: Adobe Illustrator 18.1.0, SVG Export Plug-In . SVG Version: 6.00 Build 0)  -->
<!DOCTYPE svg PUBLIC "-//W3C//DTD SVG 1.1//EN" "http://www.w3.org/Graphics/SVG/1.1/DTD/svg11.dtd">
<svg version="1.1" id="Layer_1" xmlns="http://www.w3.org/2000/svg" xmlns:xlink="http://www.w3.org/1999/xlink" x="0px" y="0px"
	 viewBox="0 0 64 64" enable-background="new 0 0 64 64" xml:space="preserve">
<path d="M60,4H4C1.8,4,0,5.8,0,8v40c0,2.2,1.8,4,4,4h36.6l11.7,11.7c0.2,0.2,0.4,0.3,0.7,0.3c0.1,0,0.3,0,0.4-0.1
	c0.4-0.2,0.6-0.5,0.6-0.9V52h6c2.2,0,4-1.8,4-4V8C64,5.8,62.2,4,60,4z M31.6,46c-2.4,0-4.4-1.9-4.4-4.2c0-2.3,2-4.2,4.4-4.2
	c2.4,0,4.4,1.9,4.4,4.2C36,44.1,34,46,31.6,46z M34,30.8c0,0.7,0.2,0.9,0.2,1.4c0,1.3-1,2.8-3,2.8c-2.1,0-3.8-1.7-3.8-4.9
	c0-6.2,7.9-7,7.9-10.6c0-1.6-1.2-3-4.2-3c-1.6,0-3.1,0.5-4.4,1.4c-0.7,0.4-1.5,0.6-2.3,0.6c-1.7,0-3.2-1.2-3.2-3
	c0-0.5,0.1-1,0.3-1.4c1.5-2.8,6.9-4.1,10.4-4.1c7,0,11.3,3.4,11.3,8.3C43,25.9,34,26.5,34,30.8z"/>
</svg>
