<?xml version="1.0" encoding="utf-8"?>
<!-- Generator: Adobe Illustrator 18.0.0, SVG Export Plug-In . SVG Version: 6.00 Build 0)  -->
<!DOCTYPE svg PUBLIC "-//W3C//DTD SVG 1.1//EN" "http://www.w3.org/Graphics/SVG/1.1/DTD/svg11.dtd">
<svg version="1.1" id="Layer_1" xmlns="http://www.w3.org/2000/svg" xmlns:xlink="http://www.w3.org/1999/xlink" x="0px" y="0px"
	 viewBox="0 0 64 64" enable-background="new 0 0 64 64" xml:space="preserve">
<path d="M60.6,26.4h-6.5c-0.5-2.6-1.6-5-3.1-7.4l4.7-4.8c0.8-0.8,0.8-2.1,0-2.9l-4.7-4.8c-0.8-0.8-2.1-0.8-2.9,0l-4.7,4.8
	c-1.8-1.1-4.2-2.1-6.8-2.9V2.1c0-1.3-0.8-2.1-2.1-2.1H28c-1,0-1.8,0.8-1.8,2.1v6.6c-2.6,0.5-5,1.6-7.3,2.9l-4.4-4.8
	c-0.8-0.8-2.1-0.8-2.9,0l-4.7,4.8c-0.8,0.8-0.8,2.1,0,2.9l4.7,4.8c-1.3,2.1-2.4,4.5-3.1,7.1H2.1c-1.3,0-2.1,0.8-2.1,2.1v6.6
	C0,36.2,0.8,37,2.1,37h6.5c0.5,2.6,1.6,5,3.1,7.4l-4.7,4.8c-0.8,0.8-0.8,2.1,0,2.9l4.7,4.8c0.8,0.8,2.1,0.8,2.9,0l4.7-4.8
	c2.1,1.3,4.7,2.4,7.3,3.2v6.6c0,1.1,0.8,2.1,2.1,2.1h6.5c1,0,2.1-0.8,2.1-2.1v-6.6c2.6-0.5,5-1.6,7.3-3.2l4.7,4.8
	c0.8,0.8,2.1,0.8,2.9,0l4.7-4.8c0.8-0.8,0.8-2.1,0-2.9l-4.7-4.8c1.3-2.1,2.4-4.8,3.1-7.4h6.5c1,0,2.1-0.8,2.1-2.1v-6.6
	C62.7,27.2,61.9,26.4,60.6,26.4z M31.3,42.3c-5.7,0-10.4-4.8-10.4-10.6s4.7-10.6,10.4-10.6s10.4,4.8,10.4,10.6S37.1,42.3,31.3,42.3z
	"/>
</svg>
