<?xml version="1.0" encoding="utf-8"?>
<!-- Generator: Adobe Illustrator 20.1.0, SVG Export Plug-In . SVG Version: 6.00 Build 0)  -->
<svg version="1.1" id="Layer_1" xmlns="http://www.w3.org/2000/svg" xmlns:xlink="http://www.w3.org/1999/xlink" x="0px" y="0px"
	 viewBox="0 0 63 60.3" style="enable-background:new 0 0 63 60.3;" xml:space="preserve">
<g>
	<path d="M52.4,11.2c-1.1-1.6-3.3-2-4.9-0.8L41,14.9l-5.8-12c-0.4-0.9-1.2-1.6-2.1-2.1c-1.1-0.6-2.4-0.6-3.6-0.3
		c-1.2,0.4-2.1,1.2-2.7,2.3L20,16.5L4.9,18.6c-1,0.1-1.9,0.6-2.7,1.3c-0.9,0.9-1.4,2.1-1.4,3.3c0,1.2,0.5,2.4,1.4,3.3l9.3,9.1
		l-6.9,4.9c-1.6,1.1-2,3.3-0.8,4.9c0.7,1,1.8,1.5,2.9,1.5c0.7,0,1.4-0.2,2-0.6l42.9-30.2C53.1,14.9,53.5,12.8,52.4,11.2z M10.6,24.9
		l11.7-1.6c1.5-0.2,2.8-1.2,3.5-2.5L31,10.2l4.2,8.7L17.3,31.6L10.6,24.9z"/>
	<path d="M58.1,20.9c-0.1,0-0.2,0-0.3,0l-9.2-0.6c-1.9-0.1-3.6,1.3-3.7,3.3c-0.1,1.9,1.3,3.6,3.3,3.7l3.8,0.2l-8,7.8
		c-1.1,1-1.6,2.5-1.4,3.9c0,0.1,0,0.1,0,0.2L44.3,51L34,45.5c-1.4-0.7-3-0.7-4.3,0l-9.4,4.9l0.9-2.7c0.6-1.8-0.3-3.8-2.2-4.4
		c-1.8-0.6-3.8,0.3-4.4,2.2l-2.9,8.4c-0.1,0.2-0.1,0.4-0.1,0.5c-0.2,1,0,2,0.4,2.9c1.2,2.3,4,3.2,6.3,2l13.6-7l13.5,7.2
		c0.7,0.3,1.4,0.5,2.2,0.5c0.2,0,0.5,0,0.7-0.1c1.2-0.2,2.3-0.9,3-1.9c0.7-1,1-2.2,0.8-3.5l-2.5-15l11-10.7c0.7-0.7,1.2-1.6,1.4-2.6
		C62.3,23.7,60.6,21.3,58.1,20.9z"/>
</g>
</svg>
