<svg id="Layer_1" data-name="Layer 1" xmlns="http://www.w3.org/2000/svg" viewBox="0 0 64 64"><title>icon-hide-responses</title><path d="M60,4H42.5a4,4,0,0,0-4-4h-13a4,4,0,0,0-4,4H4a4,4,0,0,0,0,8H5V47a5,5,0,0,0,5,5H21.2l-5.8,5a3.88,3.88,0,0,0-.52,5.46l.12.14A4,4,0,0,0,18,64a3.88,3.88,0,0,0,2.6-1L32,53.3,43.4,63A4.45,4.45,0,0,0,46,64a4,4,0,0,0,2.6-7l-5.8-5H54a5,5,0,0,0,5-5V12h1a4,4,0,0,0,0-8ZM51,44H13V12H51Z"/><line x1="58.33" y1="5.67" x2="4.83" y2="59.17"/><path d="M4.83,63.67A4.5,4.5,0,0,1,1.65,56l53.5-53.5a4.5,4.5,0,0,1,6.36,6.36L8,62.35A4.49,4.49,0,0,1,4.83,63.67Z"/></svg>