<?xml version="1.0" encoding="utf-8"?>
<!-- Generator: Adobe Illustrator 17.1.0, SVG Export Plug-In . SVG Version: 6.00 Build 0)  -->
<!DOCTYPE svg PUBLIC "-//W3C//DTD SVG 1.1//EN" "http://www.w3.org/Graphics/SVG/1.1/DTD/svg11.dtd">
<svg version="1.1" id="Layer_1" xmlns="http://www.w3.org/2000/svg" xmlns:xlink="http://www.w3.org/1999/xlink" x="0px" y="0px"
	 viewBox="0 0 64 64" enable-background="new 0 0 64 64" xml:space="preserve">
<path d="M64,12c0-2.2-1.8-4-4-4H4c-2.2,0-4,1.8-4,4v40c0,2.2,1.8,4,4,4h56c2.2,0,4-1.8,4-4V12z M6,17.4L21.2,31L6,46.2V17.4z
	 M32,35.5L8.1,14h47.9L32,35.5z M24.2,33.7l6.5,5.8C31,39.9,31.5,40,32,40s1-0.2,1.3-0.5l6.5-5.8L56,50H8L24.2,33.7z M42.8,31
	L58,17.4v28.8L42.8,31z"/>
</svg>
