<svg xmlns="http://www.w3.org/2000/svg" viewBox="0 0 44.54 47.97"><title>icon-calendar</title><path d="M52.74,11.45H46.19V10.2a2.18,2.18,0,1,0-4.36,0v1.25H22.17V10.2a2.18,2.18,0,1,0-4.36,0v1.25H11.26A1.52,1.52,0,0,0,9.73,13V54.46A1.53,1.53,0,0,0,11.26,56H52.74a1.53,1.53,0,0,0,1.53-1.53V13A1.52,1.52,0,0,0,52.74,11.45ZM17.81,14.5v4.74a2.18,2.18,0,1,0,4.36,0V14.5H41.83v4.74a2.18,2.18,0,1,0,4.36,0V14.5h5V24.84H12.79V14.5Zm-5,38.43v-25H51.21v25Z" transform="translate(-9.73 -8.01)"/><rect x="17.55" y="22.59" width="8.87" height="8.87" rx="1.13" ry="1.13"/><rect x="28.78" y="22.59" width="8.87" height="8.87" rx="1.13" ry="1.13"/><rect x="6.33" y="34.05" width="8.87" height="8.87" rx="1.13" ry="1.13"/><rect x="17.55" y="34.13" width="8.87" height="8.87" rx="1.13" ry="1.13"/><rect x="28.78" y="33.97" width="8.87" height="8.87" rx="1.13" ry="1.13"/></svg>