<?xml version="1.0" encoding="utf-8"?>
<!-- Generator: Adobe Illustrator 17.1.0, SVG Export Plug-In . SVG Version: 6.00 Build 0)  -->
<!DOCTYPE svg PUBLIC "-//W3C//DTD SVG 1.1//EN" "http://www.w3.org/Graphics/SVG/1.1/DTD/svg11.dtd">
<svg version="1.1" id="Layer_1" xmlns="http://www.w3.org/2000/svg" xmlns:xlink="http://www.w3.org/1999/xlink" x="0px" y="0px"
	 viewBox="0 0 64 64" enable-background="new 0 0 64 64" xml:space="preserve">
<g>
	<path d="M32,38c-3.3,0-6-2.7-6-6V6c0-3.3,2.7-6,6-6s6,2.7,6,6v26C38,35.3,35.3,38,32,38z"/>
</g>
<g>
	<g>
		<path d="M32,64C16.6,64,4,51.4,4,36c0-7.1,2.7-13.9,7.5-19.1c2.3-2.4,6.1-2.6,8.5-0.3c2.4,2.3,2.6,6.1,0.3,8.5
			c-2.8,3-4.3,6.8-4.3,10.9c0,8.8,7.2,16,16,16s16-7.2,16-16c0-4.1-1.5-7.9-4.3-10.9c-2.3-2.4-2.1-6.2,0.3-8.5
			c2.4-2.3,6.2-2.1,8.5,0.3c4.9,5.2,7.5,12,7.5,19.1C60,51.4,47.4,64,32,64z"/>
	</g>
</g>
</svg>
